<mxfile host="Electron" agent="Mozilla/5.0 (X11; Linux x86_64) AppleWebKit/537.36 (KHTML, like Gecko) draw.io/26.0.16 Chrome/132.0.6834.196 Electron/34.2.0 Safari/537.36" version="26.0.16">
  <diagram name="Seite-1" id="boYtLbVZ6WQKFiRwF0dF">
    <mxGraphModel dx="1434" dy="835" grid="1" gridSize="10" guides="1" tooltips="1" connect="1" arrows="1" fold="1" page="1" pageScale="1" pageWidth="827" pageHeight="1169" math="0" shadow="0">
      <root>
        <mxCell id="0" />
        <mxCell id="1" parent="0" />
        <mxCell id="c-pm6wDFBp0grKCKoOtM-146" value="" style="group" parent="1" vertex="1" connectable="0">
          <mxGeometry x="10" y="20" width="554" height="725" as="geometry" />
        </mxCell>
        <mxCell id="c-pm6wDFBp0grKCKoOtM-1" value="" style="shape=image;aspect=fixed;image=data:image/png,iVBORw0KGgoAAAANSUhEUgAAAioAAALVCAIAAABhll0oAAAACXBIWXMAAA7EAAAOxAGVKw4bAAAgAElEQVR4nO29zZIdt5WujRIpnRB/HKI1UZHqG1B0S2JJLDrCnhzZ4pk22xdgUiOSd2BfgH0HRY9M+gK62d+UsuVvYEeYRbIsyRG6gZaqRnIxRImKY/3UGaAKhZ0AFhb+kcj3CQ6Ke+fOF5kJrBcLiUSuvXLjogAAAAAKsHd7R/29fnND//y5FuUBAACwCCaWo38F+wEAAFAQlwPBfgAAAJTF6kBruPcDAACgAhh8AwAA0AA9BxKwHwAAANXQHQj2AwAAoB7KgXDvBwAAQAOQ/QAAAGgA7AcAAEADThLfTSbJBTGZ4UADoTihFJWFCyUyWEWCEISaCDmzn8RAwP85hOJ+nqiyZKG2Kr1VJAhBqJWQfeqB2kVcd5L/81GForvhTKHEw1myUCK5ytlbjYUQhGoKCdeSo+kNTP2QdsJRhVLCH0coS5xdplAiGcvZVY2FEIRqCimm9pOrC+ktx6hC6V1vWihjH39pQolkL2cnNRZCEKoppLMy+OYtwdaVTfPDW/e3XXt37XBUIeLKZRHiVBEIlRiFK1fO0BobKhTdNCAEIVolQmiyzbH90D9wyXuLYu62ByGOSqhQ9OEwhdLP22KFEildzoxNwyrUZxuE0NKEzA3WDg4O1m9uMCP1xoufWne08/WrzHIwhd46ZRd6/Cyn0FunPrOqCCEeP7sQJERfubfdQo94QopehE67hb7qSyjRgZiNM7GcdI1NF2I2DY6QUsksdGAIPcst5GgdWYRWw5dd6HF+IU+czCZ0FPknV0lFfq+QWchD+1H/J0rgMh4hxNrRH4/dJjQJOqQlOIUUhAmFCDmbsSbkb89WFSVE+IEO4Q0ZhNaO/+REKI+QO/zpSCGvA9URinYgTuMsfUKChJjXt2uh1QjHbBoeIUYzzCKUMar4hGrFSSPyG/0EKv0gWtCK/bhKwDEeBceBXEKcE3osxDizbiFWvDgS8tSVdO+ReGt/sJB5eaSQLw6mW8IshDi4fh7qPdHlzCuU0U1rCGlxTraOSKHwZhgnFBFYYoWCQ2WkkDv4u0yIL7SnJl5n8R66uLRQ0AnlbJ/FeyK2F1HeE7G9U2jt6J9L6PRnQqthAUIhgalzoSxUK2cuIa8N9yWk1WRZyWOEopphhFBcYOELxXmP2j5GiAzmZoCRZhF06uyL7hDe8782fq//9587v5hs8NaLnz7++tWtK5vEnJ+JkPWEvnBxVehvhtCpTx8/CxWyVJEXLt5dFbpmCH32+NmFICFrpX9+VegbQ+jtU589ihbSqsPzb64KfWgInf7s0VeBQrZ4MVOhRMY7Ib0LrcUKVWyGZjaQN7Ac/SQmVKqiBgjZgv8LRvA3jzpIiFrzzWTiPapAExMKciArkxOqPpmc2SAHcgjdtX4yqStBNdLkeUNFffiNTShs727j0T80A0cK4wkFYQbQ7OV0RWoIcYUM7+E3wwgh2QplODajinAEliAh03vMOClsoVLGyQAhw3teMCK//FBGfmVCGy9+qk9G8GJZ9cCV+pjeQxfOi/WcvnDx99Zzqr5NEFqpji9cvGutJepb+Qc5jmUXmtR7a6Wnv/WOzxy3ZJ/3uL5lDgRZQ8ashRKx7r9aOSEULxTSDF1DcF7WHN6jmHzrGoJz717fFRUMJ9+6huA4EOH9hY3fv7Dxe71YxP0aE+4LFwjvUeXQ/+u9CRRNnANFCd3lG08KdMPIKUQ2dQiVI0s5OTupJhRHUPciSSikCzgLoaPe82F/uFwYnIRuZmoxCZVMn2PZj9d7XISabfg5XQvsPiihu4FC3A5RenVk3ixNb8nM+8zjCSVSoZxxUzAiiBYKPerorLSeUGBTjRYKDT42IVbHODScxh/Rxu9FyCiRwm4/egLF32nEEFzoLI5DoYu/DxwVi5nAJmrmJYYQURXyji8tSijLntdW/zGJ+Ek6dfx4TKGoiBFBRGiK6D3HERrSQ6u3J/up2VQKUW0+bv2JvxGMNyw2l/G3k1o5ZbPqs2YOcuH0e6LtOpFdEdfXjxFi33mhZr4N4D1gCYxaUfXjOjkTl+0IfS4a6BJn9jNMk67wIEg26o/OzJ9v202/DiKxnCk/D2oC1aazVxJCawolOQQ9Zs+9tttP0NxthfkIaiHi5s5HEPQ0QIrPffPhNf4lTxVi762VUGL9n0uHo1A5425NzQV9wVMmcT4X/PhdSLjQL83jcKG4AMh89OeQNSHKh3TWzLfgQhydXW8Dm5wR1/O6XhhCK9c47ikzjtCjZCFiZTBzs2Oh8DbGbMkRDT5aKDFiPkwuKo28KOkq3j3kcqZqQt5LXK1PMCOh0p2D6HB6CLs1RrsU97mfgBKsCRHqtEFCqwE9tO/AD3AT54joDTGZ13AHZydZhDjDTT2MvJUr58Q8yglFdGUiU4qehaK6pBHdTX0bTiySPjcJdCVGgI6E8qQEHCz2c1iI1fE32t8m3sMk4mjjTrq6fnrp6IoSVxelUFCNjGtd1p4XvauMJldNiA6m1m+bjLwFlfMhL7utLDTplgVdYma+ztlVMyFbXzNSKCSwpAjRwdDoptuXo+YJ8YK/FHKse20lIPv5584vrCZkek/KoQoh/vm3a9Yza37oWrScyTd/u2atK+aHKbWEEjKaRFADM0c8vvnwmrWZRQsdGmq4kLr3ECRkDhZ9++E1M+ZaPyw98iZJL2fPQvpNo29tl9h13flC1rpkblxbKGogzNrdFA4HcgUBvpA50uOKk0efBw9mW1MC4XAglyPwsU+8vnV/e+vK5uOvXzVncNv1tGMMGnY7FHr2qjYn/XBf3kQnaNhNCj16dsF8msxbJ4KG3exCa0Iw0oIg7zkU+uqC+SBeKyGzsgd1wKXQw68uXDKEvLE1JaWIo1o5GwqtaUKuCcwRGYlZlzhOU1zoaKJ2RF/TDCwcp0ns1EoYA0Jrid30I6FfCOGZyB6U+ggi+7EOwdmxeU/ooR79kOvV9MuwCUJv4dDvqPb/kN3/iL7DH/rDvELEJKvodCT0h3XyHoWqCaXL2ZWQ9UKH1iUlFFdp+W0wOtSGWkJloYhpcqHe40qADnFHs1DvEcp+Ju9eNXfqhOc9av+mkNqYnzZx3lZLCPEdiPP+3TxCjFcXU0LsxpxFiDOv92GaED+AcoQSqVbOuQjpw6rRQhGV1sQr9OirC5WEnl0IDSzWSO0VevzsAt+ECO9hCL1qj8m2Zk94D9EMj1+2LciXHwtzKYXVQvDfK+4Xci+CpJ/3OCF9ARJiWadHeYXcC1XpNX5GQuZwkOJhZ0LRb9r27memJySjEDPcRL9ym3C4foXINdzo0ZQgIXqxOHp8KFDIsYjOgRBafkILmfvfu72zdnBwsH5zg26rkzWj3nrxU+vsao48R8hrP7mEvPaTTcjnCrMT8samroQSGe+EdCXkqrRMS+hRyBFYmN7DF1LImGlmRYlC5mqB0orMrCiiGe7d3ll75cZFzqbWotDarn1yhFwOdPm/7Z/HCW3/uzOH3cwrdNUtdG+WQg/dQpe6FEpkvBMSLfTwqwt527ur0j6ar5AjsDx6llmoZkzOIjTZ4Nh+OD8Igk67aKFzL71o/Xz/ydcZhVwqEBpSKJHxTkickFUFQk2EQulBSN9mZeab2jT9ni0tDyEI1RdKZLwTAiEI1RfSmU68zlIIjjyEIFRfKJHxTgiEIFRfSGF57iexEHx5CEGovlAi450QCEGovpBk5d6PdUdx8KMAhCBUXyiR8U4IhCBUWWh67ydiF+m/hRCE6gslMt4JgRCE6gs5s5+2hE4d6VwodLYShOoLJdL8hMy0aUBosVDZDwAAAFAO2E8N0OtZLLj0ALiA/QAAAGgA7AcAAEADYD8AAAAaYH/baVv0Weev/fLH8o9PfvMX9WGuKbaT6e1KS9+g3HRe/YhEpoOa7NMkiwrzsYBCp67EeUvBPBtmRSpNidbRSqUcqvz6BVIfZjwi/UTVrwyTClmnycepxEy8LnF4rp0TpOi6VFRdkXeMM9rPZC6m6ROJQnXOW00hiX7eXObaNhRaT8ikImXEnNRbqC5ZY3ReIYn1iF775Y8znrq2rcOMKulCQQWo0+RDVfZu74RlP9ZyZD+b6zc3VI2cdFj061dIqA7WGpmOfkQT8gpNslI9VOUS4ncREoWyMAnWMoDWVK9wNkq0QeFoeiVyXNNQCx1Rw8owOVG5mqH3/O/d3onorAfYj2s9H/l5UUsHswM1obIDDQzq0qhw7YdwF/mhMiHUFZ1O+ubzhTME1Buv/fLHsqi93abqE9Oksw++jccYgSXbzDc0rUWB0ECDvAcALxnu/VRg7o252i2Z8ZhLxmOi31eYI/M984uC7vd3Hlh6nHito8YxAFg45oS0udM2OI50JmdKmP00cdo6tUT63Nytrlp7riAkK5s5Yb3Pa1RtogFnnlgi1jOv03mfmkNl7+mz0nJYv7khZ7VxtgzdOfe5H+acglxTD8ZbGh1CeVWyCyUy2GmH0CyEZk3ACxeYpoIJCCAvaLEAjArWfAMAANAA2A8AAIAG9D7zTVHtCb7BhLIvCAYAAFkIW/WAQ4noZsbQQssrVJugMt+ZMAAAkIV5ZD/VVpmEUBBtF5ZfMtZ3B8xaqBrjHdF84doPkWoM8BAASAcrbDah5vNGg13f8Y5odiRlP7rxFHoFXCFGejyzspCObL0YSGwLHCgIvdKOcUSK+m8S0onQjbGfoq+bA7MDCyPVx/oW4FkLgURUWC5xX7xQ7zZ+ydFyrlNtgU4IAQDGYy4vvomZ+TaLAwPVQL+4FZioCSQz7VZmGHybAHNaJiONoYOFMEaltQbkvAmQXHiU3iBit3Nd9SDxzFbzyJpCMP5lgrnXoSCZi6BEeMkw8TovHKEshRlPiEN2IbTkVuDMJzKGmxJJSfY7QK4cKFplrtkP6IoxWvKMwGOn0Yxk295bPtXeyxUH7AcAAOZHk+kGedMp2A/IwEg9SjA2w6Rxre716rqJZUh626lpv7nOyHjvJRxYaDI+M98jSqHhaRdCvPbLHw8gNAFHNDYBbzsVvFxvptPPAZgdw/Ti64NT1wkZVrxWGQ+8Z5mgMbeiznJHQ67sh0rbA/N44QIAwEq1MIp4DbKTZD94zjGIam/HwWt4AAD9w733I50Gw2sp6E6A1boAAAsnIPuRj7wWfaXE8NQZRsci+QCA/gkbfFOLLiANAgAAkELwY6d03oOsCAAAAIeYqQfwmBRw1wcAkA5zCCo9XJcTwqI7g4OZbwAsmcQbJfyfRwjhuZ+q1F+oGAAwHirW0zlHrpv03swmTgjZDwAAgAbAfhqAJ9UBAAD2AwAAoAGwnwZg8hsAAGDqQVXUEsWf/OYvRUfGqgkBABpSZwWAQirIfmqDGz8AgET4D9kkPvdTVAjZTwPgQACARKo9/l9OCNkPAACABsB+AAAANAD2AwAAoAGwHwAAmB+c2WhZZqyVE4L9AABANs699GI1LfX+T+KrLEuOFhLCzDcAAJgfk5d/6vPTmAuSMlWEZkL6PnW/iRNC9gMAALNk/ebGxAz0NCXjhGmrkP5t3G6R/QAAwIxRCUoJ4yGE0lVgPwAAMGPMmy57t3dKONBEKN2EYD8AgPGpOSOgJmbG47ohlEUlrxDu/QAAwPxwjbZZ5yAkCll3ni609sqNiyklC6LO4qwATIjuA6LGgibwX25NbJnlVlA5ob3bO/XsBy0ZNCSiBaLGgoZUW1G0FXu3dzD4BoAFeA8ApYH9AAAAaECbmW/evPLcSy/e/98/nHx45U//2H/ydd6SnHvpxfv/+2VD6PMiQu8YQh8UEXrfEHp3aCFi7k2WJIYzDNLP2ZiXkJyQNhF694PPhRAlhCZt8Eo5odWocuVPx0Klq+uMaHPvh2jPW1c2hRCXTn9m/fbhVxeEELfub6eX50ho1yF0PrPQGYfQl5mFNh1C20MLuZp09N1X/kPdHZ6NWQjRKtmFXA1Q5GuDdEgRWlTxVlfrt3FbZsHbjiKeNNq7vdPRcz/y4vG3jK4uEBpPSFLoaTuONGfLGZ12whXyCjG37FxoRWVNiAPPxvfu3bh69beVq2s0utVZy6weAAo9nF6yH3X9XHnPBJkGifDqogl5GpgQQqwd9oyShHwtWZIu5A0Zku0qQkqlmtDVq7+Vf2RZe5FZXbs65xCyClVrgCtCbgeSOZA4qrGup2eY2U+11EdfezTLqqO9zHxTA25M7xGaS/F7N5rQrt971oRYE0KrUjFCZ3aZVT9RaPPMLrMxC63ZFxXSt6wjdO/ejXv3bojyA+ihAVRohYw4FRCqI5TSAIVpckcBxCJ0FHzqVNdEiHFC3QLjXLB99kPf7PHCvxvkHZk9xqg3QT0j71gzIRvU1/OOnhMMLKR3KrNnPxFxzSwk/1RUE4pTmZEQOR62Av9WEKul+9Iga3UVIfd+vKQ/dmpNd9L33Dj7SfSeyX4YQjHeI0J6RineI0JSk8TGPLBQuU5loiWoHzJPRU2haIKEog8nXciRili4FCLkb+luYRmOSudA5Va/Tt9zS/vJ4j2cn3O9x50vC56jxHnPRJbTRNMb89hCZl8yI1kKyYn74wklkihEtu8VvA4UVgafcIoDSRsg/kXskyOaZT9d3PtJRDpQau1nVExmtyhI0yo7l/bcs1D2hpfFICHUXIhvQl7COprWYZXTKx2mbpF3epRBqv/q/yJ222zitTf1Ofnm3ckn3354zbXxpdOfqblwDiFnRTn55p2p0EfXnUJndh9qc7osQu4aefKNqdB3biECbxs7AaEWTApJlHDzzO72l+e3rmy6bjDQAXReQhxLaCXkbemEEO09J61CtjnZl07vPvzqvOwwRQTxfmZvR5Sk0+zH9B75ofVzRUTn2vQeIcTJN+6YVpEqZNvhiTfumIFVEp0uWHfoUhlbKGOzpEOb9ToSF9cr5GKOQjRthbwtPQLrPo8/zJR5qbpd2nv4+48oSUv7caU+tMfQ306gUx+r9xx/G1Iv6Q5RxirujYOuH4a25/GEMrBm+UcX48Qbd6Y/EUJEmbFfyEZloSA6EXI1z4gJRHRLP3agVRNiTYkyKHdrxypU4iZTG/shGkOQu2ishV5C2nsIQiul13tyNTNvOG4uFEo1IQ6bZyNvXZx4fbWQa577D9H3SELPRombMdam3b8QkZNMhKKntnolK9wZ7Y1OB99oDIs6vpLcS8hLgQnnqFZXRqqUFW4+y8gebRVWiEswtZYsQmaOldtoqSNiCPELMyOh9FExziDHyja5pkDMllnazyrh17C/q16tF08I5fW5qkLG0FYJoZb0V2OHJOOkuADJBTN3++nde6qp9WBgMxUCQAcOVI1Z20/gdavbt6nck6o2EXk8oaFo0IEfkNpncamXbL72E+49FQlVGy+mE0L+1bR8N+dXhD5OEBoVx2gkCAInrzSztJ9vPwyMOLH1iHgqjQhteWtttRjaOFh3HDGJM0OYX30h+za280kJMTooWTox4wkR4SJom+XQnf0QSxvQqLdocIV89cC1gWvVA+EInt6a7dpg2y0UtJ8ZC/lirmuD7adhQhyi9xlqUSUKbxcKvBwRSJ8rITRx0HKdp1ZCS6CN/cgT7Vomh3YgIvVxCjlqf8aeCN3MiHgd2u2qLBSxt8xC7tidN/OIhi4GbZBBEaeIkC03oq8g3bcIO6IEoaCvsgvFhZSIHu3YdPSybZ1vP7xmW/Mtf7j59qPr5mz9Egnydx9dr7NwWZyQK2psf3ne9bBOmNBRmHMKPT3veljnu4+vm4/XELE4IrInIgszKWQJdywipDvQ0Ypk8jryl2KLZjwhGT3sa76BVVq+bi7khQueGwJy5M0VcbI9qOx7FVXGlX2JvmTe9YPLCmnXjXCFQ6FMz4rqQhlfN5exkLRBdiHEfzubFOqgXdQXyh5SUt5dPTvav26OB8t7KlAtR6bHyjOOp9NtLF7ImERAx8FDoRz3PEqnPvVuzLQV6nUaCBiJlvZD3wE6gtsCiIhD3wEKxSuU60ZrNSFvGbhCCTErowMVIpeleQ2yLyHGNfXe9clVXXsTSg8p/Bd7D0nj7MfnQP5IRg+7TYUSqktQRUlpAEG3cHsRIiNUUEaS4kClU590j2T+NpcQs12whByXmFmL0o2hT6FqIWVIehl8szlQNu9Z+UlUdeFXFLVNXAPgW0KK0PaX5/MI+brG20/P8y3hWCg87AYJpZBiDOpX/LORKMQhTGj1igfVvRRjCOoqVRYqHVIGpuXUAx21OuTRTATu/Z7Q63csxLttqOpWkJC+2CXzRuj2TIQOVRgjbEHR1iLEvvdOCGWcepBSSD24Fz0bcee8jVDJ6tpEKD2kLG3qQS/2I1YjKfHyHn2iQVzfYUXIXWP0Tk26ENEGtmcq5I5T0dE2u1Ah+8lYQi+DCw3XLlJCCuynoJj6mzizzEXy05NWCC1BqJz9SGZ0KiDUvxDsp6CY+tt7Zl0XMvtQKYTGFiptP4pZnA0INRQKqq4C9pNdrI4QACYp9gNAfZZgP73MfAMAALAoYD8AWBi+7wlAc+rZD9ozAABwWEi0rHfvBwAAAJDg3g8AAIA2wH4AAAA0APYDAACgAbAfAAAADYD9AAAAaADsBwAAQANgPwAAABoA+wEAANAA2A8AAIAGwH4AAAA0APYDAACgAbAfAAAADYD9AAAAaADsBwAAQANgPwAAABoA+wEAANAA2A8AAIAGwH4AAAA0APYDAACgAbAfAAAADYD9AAAAaADsBwAAQANgPwAAABoA+wEAANAA2A8AAIAGwH4AAAA0APYDAACgAbAfAAAADYD9AAAAaADsBwAAQANOti4AAL2ylvbzgzylAGBUYD9gqSS6S/r+4U9g2cB+wAIo7TRxWEsFTwKLAfYDhqNPs2FiFh6GBAYF9gOGYNaWQ6MfGqwIDATsB8yTgf2GYHLUcCMwZ2A/YFYs03VcqLMBHwIzBPYDugeW4wUDdGCGwH5Ar8B14kBKBGYC7Ad0BlwnF/Ah0DewH9AHcJ1ywIdAl8B+QFPgOjWBD4GegP2AFsB12gIfAh1Qz372bu9U0wJAZ/3WRvRv97ZQb0Eb1m/G19tZUOmFC/AeAAAIYviwiff9AAAAaECDez/DZ5TgkPI3eOTImGtsLe+4WcoI3izBbaFiqLTGGgyHT3oUPU492Lqy6frq1v1tCM1AKJ/xbL3rFnp/e/3Wxt7Wzt7WTg/eQBd1fkJrpNCQ9baW0PrNDekxe7d3ltwdX3vlxsUKMrqfu043ccEmJFYUCNUQSouDROAzhVw5kMp+skw9IHYSVNroknQqNF7VrSV09epv5R+TkMiJlgOwd3unF/tR12zzzC6xn+0vz6u/42pJA6GzpNDTbEKXz+4Rmz14up4ipDeqAKHwIKgHPr6QbMkTh6hgP3GlrXNa4hwoRiit3tYUYjbGDEK88HLr/raMjXpUhP3kV1J/T04o0w909IvHL0MDIbKurwhF1Xum8ejEteQkoZAgqGJfhNBxX/LIJ0rbT0ppq52WekK9V91dwbufldgYI8LLYefpKDAux34az3yLuGZyY7k9P89tIMT2njUhLp/dlc0jQojfgOXGcvt6QuxhnIjYpwvdu3eD/6t0ZGmVOhO1cehpmYFQYI2qKHTYuARvNoxquaFCKlwwURvLqrucGQeKlvajru6lkGum4BtDnPckCYV4j4LvQHGWoAlxHSiPECMCxnnPROiwGZd/UFRF6ojfBhnDzITYNaqi0LQlZncg5T2MHRtCq79amgO1f+7n0pnd6HlSQalJXP2IEYryHklQDhTXhvXf0kKJ3rMiREbARO/Rf1vBgVIitYRpDBmFaOoJJXhPlJC9JQY5EEeI3+QtQmd2hZa7L8qBmtmPvGwp3iPxGkNK3yRGKMF7zL0RX6W0YaaQJJeQl1xC8iZNIQfij2XReA82rxCxt3TvWREqX2/ZQlRL5DtQxibvFFp1oHT2bu+Y/1wbuH7O2WeiWbaxH+U99GYn3rhz4o076UJe72EJkRWWWRFPvH7nxOt36J3RzYbZhp97/XfPvf47eht6J9mFXBGQGf6ChEo/BsQpLXMntM1UE/ISIMS+ZVJYyGMxsiXSeB2Io8YJYjJGpU80cFkCsWfTmaybufaQ4kCNHzt1XTL9gqm/v/vounXjzTO721+e37qyGTFdkiu0JoQQm2d3t5/GCml1Xf39/cf2I7p8du/B0/UIoUnTVf/9/uP3CKEgibkIySdSIxS9EJagl9ZbVAKvJc9PyNebKSO0Zk52e87WEr9ztESv0EqPc1UtKIipfaonUhMpMWVOL1uWcra892P1HiIRicuEXKlPgBBvfNCV+qiMx+Q5++cePVcbJrqNdI/S1bnLL2R0wOnwl1EoC/RuXUUi8ra4kagehFw/6U9opTU5WhwrEwpSyxvEmNBr+WTHOlM8iAbZD3PkzcqJN+5Yuw/SY8699KL+4fvvvCxE5LDssdCqF0iPOffSqRWhn/4wWui51++s5kCHerJ1nTu3IvSHd14WIjhSqw2sfcnaQqunjtkdThSaiMZx7qVTKaV1cfns3uP/+JefffD55MPOhVwn/1Do510JHWYlLu+RnHj9jjUHkk3+0c9fffeP/zA/t7DmMTMiiMlRHOK3BCneE732T2IO1Cz7caU+ddS5QslrlwX2qvAWtmGJtg0I5RBitSx+a33/pz9M2Um5QBfqIrnypDgTaj/xOhTiyr3/zsuVhNyVL4KjTpmlhfwh6xFVixdLI++JJS46hBKEKnVtm5B+GyZ6DykGNj/7GZTGeQ/T55jBgtismlB28nYFAMhO9ABa9pIwgf2MANIaE7gFiADD3zWB/YxAxPzUVkKTG8WJQsRmTCEAJozhQEHPh8oEqP6CC/OzH3rifE4h96MAkzkwLpj1uFoM7UFovhCnKO/xjic0O8ZwoP7py34SreVddgyt5mEASGaUoWYXSvS5ikLcsEB0QDlPsHYbfyISoJmtenDr/nb03HbXZZNvztWtN3IAACAASURBVNh/8qn5Ydxqb646JN8FMhV6+q/CeA5AdqC+//g6PeXG1Srko/v7+/+z+uG/CscjFN9//B59B8gj9GRkof0nz4j9MNl/8iyltC6yn5ZFCZnLguQS0lcw2H563hSytnrJdx9fj36O9db97atX4366QugzoYlP8MTNX2iW/eivE9Uh+gWhXQZZY2KEAlfgOBTS3luqJ+9Elyq0oyqFXKvXEHsLFnp/NKEKRJRWHnjoa0khJNx1Jk7o+4+vm+1UtmK9XfNxxZDvPrpO96HnReLtosZrvllRl4e5UJK8bBHrsFmESOORFdErZA4cq5r93PFqb1T0PGzD4UekdstcNSsuWKjd6n3JuQtxuPX+9ta7mw+errue4Z+UNtojIRQvdH9760qokPMlqMRNICm0/fS8a/kDGUxWlpXjvGy1HaEJUPoaP23s5/DKfXmeHhlLHyHlCoUvOGgXenqeXq86vc/ubV3ZhHzxIotKTaGckPemv//7e5bNjNCT7pTM0zKsUHj/zCFkWZn0SCiya6tYiS1Onfg+tA5hHlke7tH3n2WaXF9TDyLIctlYQskVkTmhJr1pMSmaKIwqdDha+EX4yM+a8Y8jFDXEFMSAQuQYtQPL9XjgG3YzR93jSB92o93F/DZuXbgIaZq1V25cjP4xH73oqrjpL4JTl40O1h4hhimoGsYRcidAfiWm96S/uYsZqdPfRdZQSL1wIeX1P9adHJb2Bwml/aKj85/lbbO1hRgtMVBomphwUh8lFPDSOSMBmvShrdFySFpmP/TUAC9M7/EI5fMecdztsh4R13s4RPXvooTSeqwdCmUkJgfSfsjP0hJPi1dIbTAbIV5LDBRaaaHMYTe1QUAOtBoJqo3f9Mbe7Z3Gg2/KGEJNiO89qUJs79E3e/D0/KoJBXhPoNB6aEs+FuKFP2UM1YSCVCKE0jkOo4EO9OCL9SDviY7X6noNKBTSQAKF1oTWeEOFQkfhVDhapveItoNviuMEljEQp/tH6GWbCpGmoFemaKHLZ3e93hNqPA4h/yBDSpgOGjbpRKjc4JviuLSMgTjlVUmn5Qd73glU0edff59e0QsdLxTbEmsKcQbiiH7t8INv8vVCe7d3urAfycr1M3xokrWk9BfoijLpwkQLTR6tNav+pFNWTyg2RZi867N/oQr2I8zSGj40yZCynRbDh3o7/3mFcjX5mkJ0eHEJjW0/6tV2fdmPxLsgQq5EdTAhzkISWcamOO+x7kSojv1I+jktuUYgOxKaVUtMFxrYfvTXqvZoPzrqKpYeG60jpFfKUkJrQqy256K3QzoXqmk/Op2fllkITVVyP7DZc2wZ1X4mr/RuYz8AVCaL/QBQn2HsZ+I9ooeZbwAAAMbGlX7AfgAAAJTFmsZVWvNtmBSyR/BurJKkDNyBIvS9cCeYQNx5QfYzc+A9YGmgzs8NV/oB+5kzaIdgmaDmDwHsZ7agBYIlg/o/B8wJbzqwn3mCtgcAWsHMgf3MELQ6ACRoC3MG9jM30N4A0EGLmC2wHwAAAA2A/cwKdPQAMEG76BLvWmuwn/mANgaAC7SOGQL7mQloXQDQoI3MDdjPHEC7AoADWkpPeNdag/10D1oUAHzQXuYD7Kdv0JYACAWtZibAfjoGrQiAONB25gDsBwAAQANgP72C7hsAKaAFdcD6zQ2872duoOUAkA7aUd/AfvoDbQaAXKA1dYArAYL9AAAAKAXe9zMf0FkDIC9oUx1gTYBgPz2BdgJACdCymiITINOBYD/dgBYCQDnQvppidSDYDwAAgOKYN4FgP32ArhkApUEra418DEjlQGuv3LjYtkAArQKAehy0LsDiUfaD7Kc18B4AaoIW1xo1Cgf7AQAAUBXpQBh8awo6YgA0AUNwHYDspx3wHgBagdbXmr3bO7AfAAAADYD9NAKdLwDagjbYGthPC1DvAegBtMSmwH4AAAA0APZTHXS4AOgHtMd2wH4AAAA0APZTF3S1AOgNtMpGwH4qgloOQJ+gbbYA9gMAAKABsJ9aoHsFQM+ghVYH9gMAAKABsJ8qoGMFQP+gndYF9gMAAKABsJ/yoEsFwFxAa60I7AcAAEADYD+FQWcKgHmBNlsL2A8AAIAGwH5Kgm4UAHMELbcKsJ9ioAYDMF/QfssD+wEAANAA2A8AAIAGwH7KgMwdgLmDVlwY2A8AAIAGnKwptnd7p6YcADrrtzZaFwHMjTUhDlqXYVzq2Q+8B8yUvS1UXdCG9Zsj95kw+AYABbwHNGTsXnvVwTcF39K3rmzKP27d3y5WnKxCvtuVW+8eCb1f+IgWIyQdwjq2BvMAoFvWXrlxsY6SbuO0/SgncJHLivILObxHxU2nUKbAvVghlwPp9hN37yd6D1vvbpb2YwjVE0q7A7R1ZXMSTFQ8tAZDfrScL3u3d/qyn4kfbJ7dnWyw/fS8+jvFhCZCl8/uTTZ48HQ9Rsiwn0n09AglNLmp0A9WhB58sa7/N6PQj1aF/tpOyOpANe2nN0uGUE6hQPvhdG0JB4L95BdTf5snVL9am2eOXMc9kKV8KNSEdCHTDCaEmdBqafWKHiYU2NJWhH7gE/oij9CPfEJ/bSF09epvxapJ1LGfbi15dkLVuk2TJqk3QKcQz4Horu1U6MiEJiER9pNfTP09OaHqgh0bj/DfRIlwICXk9QMdVWM8QlqBVV2PFGI3sxUh9lNyqlVHCHn9QOev1YUmDlTafvq35FkIVes2JXUEffYT17W1OtBC7Kf9zDe79zDYPLsrR+e8ee5EKMgS5PbyJ1yhKO9ZEfINEViEQp7QVq09VCjIEvTtqwndu3dD1JpxoJeWU2B9M+YJGV7o8g/2vN4z2SxS6KhxeYS0zcKErkQKbV3ZPKy0Q09ys9LYfqK9R8F0oGjvUXgc6Cj6R3vPVMhX9aO95/BXR+2ZLxRqCepXP6olJP+o40AzsuRuhTjGoxPdbYroCFqE3K1MhgWm8ViF8jrQ3u0d1z/rxsR+spTHRfvsR1i9JzyeclKTaEtoI8RoY9WE4iwhghQh9Vs5SlbOgXI5ZTVL7lAo1HsOf8VOTeQGEZYQLHTkPREq5g8r50BSjrClouVpaT/yskXnPQpzgpxVKD1SO/ewmvoUFDpiRSh2YcQ1RqyRQune402AsgtVWGIni1NCKIw1VvsKGjdzYREyp7byBuQ5QjIBEvki/vrNDfNflj3noovsh+DE63fUP2KzoJtAVp57/XfqH7FZ0E2gDEIJrei5f/ud+kds5jUGb6RY+7ffqX/lhHQVplAhB5qvJQ8jxGwduTqC1YSUAy2ENqseCEbqY/qN/OS7j69HCF0+u+tKE0wbkJ98//F7YUK+1KeIkO2YTL+Rn3z/92MhTsrkbXWmDaz92+8O/h52ODWFcuF1Sv2/RDl/9IO9v36xbn34kROpQ4WsX+UVIpgIWRfznFTd761CvmVAOYMQemMMbYDHQoxhlVAhmaAsZBpCl9nPmsV7FK6vfENwXO/xfjWtbbyxrwxCPIhcx/VVRG+USEG82UmfQkxop7QWqUQh44QikulQIeY0ExNrmk5U5ujhAXPggR6KmAqxx7ojhXKM5mWk6Hhds+xHuFMfepyN2uHZ3cc/f/VnH/xD//DyoS1Zag09/EVw+eze45//y88++HzyoWv7JKH/cAsZx0SPsynMc/GjH+zt/PxffvrHzycf8ovKQe6wppD+4bmXTiXu9txLp4iiEkFZfpUrXaOFMiaF2YUmZ0+lMXSfyZID+RIgV2Oke4ERaVA1oUKs39xomGm1sR/C4U+84feeE6/fYQ7B/eGdH7q+4lgCv6L84Z2X2wsxvMfemG388adOIU53nh+eqgn1idWS//jTl4WItGTXCZFCEw+ehZCr0srQPxH6wzsJQo5mGCrkbfJuod0H2rpiDanjSV0OvoGS4A3C0aQ7ZXoZEoWIQ2gitMbuNrm+Ijpk053wOoLpQonkGn/jPPSjb2x+WHqm3FD24w6sI4bcEY8JAC4zr/8Onyt7VE08hqDlvR8AAADZ8b7Ewcre7Z3K8+6Gyn4WxMy7fgBkAK0gE9bVTitkRW3sh1g6OvSxHoW1Kv7sg3+4Kmm1ySf1hOZ8Bx4AsDRaZj/bXxpzPHjdmWiLCoXvHJO50WWFEjp9/Elik7nRoTvpQYjYcxOqzdAbT8jZtcqdAPXQK831NucIKk/C7nHwjXYX4tsHT8+/9Z+f7u8/0/89eLo+ecWTgq5qrm/lDt/6r//Zf/JM/1dP6Iv1B44n2OkEyBUs/vrF+l+/WN/4z6mQ/DxoV10J7T95pn84EfX+M3eb6JQEkz1XEyKYixC/55doLRWEXAGkApOhtjrzEXq0H+H2GNp7IoRcFSV7J6iekKMxZ++ounY4X6EJpgkVdcpqlqz/2/jP/+lfyFWlZT9sIvTWf/1PoY6gVSh0V5xvU+DMse6HZjPfbt3f3rqyuf3ledfaB0EjbEQKLoUePF13PZ+cqyrcen97692KQl+su5asN5srcX5kRLC+QVIK/fWLddej/kEG0INQaQ7+/p71UZgSlrwQoex3NL//+D3rpOe45km394xCoaQ4ULWp2D1NvE4YxpWpT4UxU9nfuXV/u/Ssm0OhFjEUEIxnyZWFiN8e/P093/usj3mQ0MkIMoCUlhgjlBbE6JnTtK/UX4Cn5eCbPNGWCQiBbPu8R36VPq7q9R5ZR7MJuWv8oZBjKGNCXOqjC7nGTPj0IwTaQl/iLJ26XM2wH6FQrG/64eQ0ld8J1PjeTy4HYgqlVBTmb9NrZJhQQrxmxvp0Y6gsVNp7xrPk2Ql5U596HcHsXdsl0X7qQboDbZ7d5Vy2lIqifsUSSqj6x0LsGBrnQCoE8IXiokZ9oWpUsORcQsyTPwuhoGG39I5gPaGFeY/owX6EcqCn57ejZq+9u/qGBa8QMTHGytR7GAMEyoEihXg1/tb72yoHcpmQtbChlqCEQqNGhNDkh4WEEoku5+RX3tLmEvLSjxDdvPidLSWU2BH0sHZsGylCC/QeIcTaKzcu1lHSb2pZhxf1dV5974475N0//kPV1v19y4MaVnQh+pVu9qSHPT6t32jlCkVFzxUh45UqOolhWgl539DTidDellbrot69TeyBX0idiDOzNCHXBIQHCUJBL28Mm25wIIQWVfhCxJiKN1oOwN7tnY7sR0IvNq7b0rt//IcQIsJ+OEI608oReHuU/0LGxJ57HaGg90s2FypqP5LZWfIshCYOFGE8ViGvN8R0BLWy8k2IHs+H/eQXU397T6jLGzbP7h66jkIzg1AHIoQEkQ5Hzc4hgmne8SII6VSwH+Eo4Y9+sGcdX8pryTJwlxNyOZCuOK8jUkiHsI6YhQmtWqUZUighR5CB/eQXU3+nnNDpK5PT7CcGrLM7H+rYj2IWlhzE5IXlir9+sT7TI8ovZBsrpAdXvHd6YD/5xeoIAWClgv2Mx7S3d4R1Tbzlwn9clsdC7KenVQ8A6BvdigAAidSbeD2qh4NZsMDEBYDOqTf4lpfDMQHHbZiCN4Fw42d5IOkBrRi41z7jwbf9J89co9IFgfcskiVnTrj3wyX37Z8l0MWqB9k5d666MwEAAAhhxvaD/hcAAMyXGdsPDRIgABJpML4NlsS87YeeYgAHAgCAbpm3/VQF8w4AAC4QH8KZvf0gAQIAgDkye/sR1ZZ6AwAAkI8R7IcGCRAAAHTIIPaDBAgAAObFIPZDgwQIAAB6Yxz7QQIEAAAzYhz7oUlNgDCrEgBAgygRyFD2g0nYAAAwF4ayH4EhOAAAmAmj2Q8NEiAAAOiEAe0HCRAAAPTPgPZDgwQIAAB6YEz7QQIEQDnwqi2QhTHthwYJEAAANOdk6wKUYn//GWEz586dQoYEgtjb2lF/r9/aaFgSAMZgWPsRPgcKgPE0mYxN3Ualzos3QQ/0VrwHkv14vUWqgLUMJa5phdpCnM8mtZRzfVkFWxPiIEN5FsISB98kGYfgVN3tIUiZ9FkqF5zS7m3tEJvN63gTyX6wFc5ebxeIWZ7eij0Ag9sPRtjmRVALrxkO5pI4zoKuTma3VW4JjDz45gV3gLqFiFCtQkDzoKkXYO5x0DyZzY+Ivr7Nizckg2c/onoChGqahd7uDQAAsjO+/dCk3wGC32RkpA4+AIBmEYNvmIQ9GEiAABiARdhPn5jTW1Nm1qb/tv5sZivrtzb0mYS55OLOjysDiyhVV8OJ1eZwA0CwlMG3Qq8CsjZj5tRh1x8pe4v4bejGFcbE8g7BEbO0q43v0UI1hxl7OBsASJZiP6LwHISUniP9FItIC165Ykrl2JTFgbwntg4pHYjKJenhdIHlgMG3Q9LvAOmjRik7UX+Hhq2JBY4USrKMwlnPLb3n9FM6+Qkx4TjjSCOHgWsLmAvLsp9sy/D4iAslk58E+Zkpl8UO+QRpcU5O3vL3cGPDWoZqlwlr1oHeWNDgm5dQZzKjRkqrLhERuo0yzICbZQhu/daG1Zvj9hYNR7GOD7lcsNvaAkZlcfZTYg5C3nGhvIwUUyKi80iHXwGcLlCTxdlPh9D3HhbeLU25RbHk8zYGnUweAYVY1r0fSZanUDmTiBYV/vj3MEJPS+WbWIUY4BAqE3rGvLM8QG8s0X5E7jkIiCySokOIrWaIgVlgtkHUk/7B4JsFvI27Q5awHBzCJVgUC81+RFoCNGr4A+WAtQAwAdmPnSwJUA8ulaUMnawKM0mAeji9g4FTCmqy3OxH5JiD4OrSdtKMsyyYlqUkueTmOw2hn1sRrpJMTuy5l+Y0BD3firFkkP0E02ctt956TdxJwyPtan3oXLStOfTNsz5rdRDqKQU8rjAXFp39iPKvAird551MCWu4kyz0UxK6DPw5vpNeOX1Qce97jltNp+3pJdRbFayH+rY0kP3Er4TNX6qyKLRWlhUZ+uxLdlgkK/1YgrckdU5pV4E+6JDnUuXmAuzHQ+IcBFd9VZ9nqdC0CnN9T9dSYEytXDCtLt37E1VCt8m1q0SIkvBrS3oZSksEkbHCgCDWXrlxsXUZuoCwmf0neBU3WBzE1AO0CIqD1gWYCXu3d5D9+JnXFCAAAJgFsJ9Dir4LFQAAwATYDwskQAAAkBfYzzGeVwHBgQAAIB+wnxUwBAcAiAfzDkKA/QSABAgAAHIB+5mCBAgAACoA+wkDCRAAAGQB9mMBCRAAAJQG9hMMEiCwZLDkAcgF7McOJmEDAEBRYD9OMAQHAADlgP1EggQIAABSWPrr5mjol9GNgXr5CtaTBwMT91K+MPDMaSDIfuIZIAHiv4gTAADyUjX72bvtDHDrNzvtei8hAVoyzORPblY6QbT2APKK0sc7aioc3bUa9YR0Qr3sh/Ce+TJAAgS8IC+cOzCPPqlkP7T3dJv6SAaehK03SzRRMDB5X28PstBg6kHnZrM00Br7Qb8WSLmyg6reGzWyHz31man3DJwAAQBAE4rbzwDeI8FTqAAAJ5h1HU7Zwbd075F7oH/r3Wbv9o78VpVHbWx+Qki89quf6B9+8us/q79f+9VP+GthucZV+IMDxMgMcyfmHoKGJjgzweht9G/NLevMNMtO+nUpVJKM6ntbO969mdtElyexsWSfTBhxIOlBzPrt5IZ6UIB1/ZZT1Ix0/dipOkfKP+iNrdvInUxOt9xY/5Aj8cmv/ywdSDce9ZVg1kV3hOLHdO8GETvhhBVmGbzbqG/pB4/mZULeQ65zIK6LK3KcSVnP6WORWmqbQuWpXzfiDiRoxi8dhcxutCnEiZPe33KCYRYKDr51PuxmXgZORfnk1382ved4DzluF3v9KXEngGZva0f+C/0hJyeILRQXputHQNf8+uXJtYcsQqwOWaYnT+j9lPu2BDWyn668Z5L0WD/ho4bjVMv0dnLpwSgm3r5n0M978Kr1WxvmsMakH90/WS5uNK5xoXT1ifHEZclx5Uk8pdknE7p2WCdjIAbcvEGMyAdaPZS5rEV3zPoRXWNe+9VPJreCEskVYeV+5hKvhRDrtzbM0s6o/EHU8aHJKbWeYT5x3kOXJ7owJjU7T5OSJ57Y1MKQN4qCftgqQ+jafjgnhTl3wLpB3Elfv7VhGk9eK/JCjw7NPXbPvfwmPRxRXBkm3hNRz3s49iz0cyDrNzeyG0YTB+rafnTqpIf+jsOtDdHuhY/moFncXQqwTIIC6ORmT1y671LsJ5Qz6afALp9Qn0cbSX0HajDzzRriU6Zl98a5l065/CndKsx7JGJWd0cGZqR+QPbbJKHfZizGSNBxsqu77BxqZz+hhsE8ofXO+9HDZREJUK55a9YRZ2RCbRn4zGe/zclk4FMKJLXtJ8InzEdErf/tigrL8Lhue8KE6jP2CY+bcp3I2KcUSBovOZrFQlqlnPtPnhE2MxmC47xsMeVZk8lv6wzHYdBvQtuJ10VRz1xXZuBT2hv1O/SzmXog6TnjYVIoXredA7pkOG8km+OlMcfc6udABHM8pT3TJLTOw37M/IY/37oo9B2g+ithd9Im0TPtE/51UcbTswPVJLpKc1bBqRz64xZ8KUHXa75ZaZ8AHQixdvw/egiOD38htU48xsqSjcc1FFn/nFhLEl2MyTqHPYy4Nqlmec+qaBrK2kdRIUT99/1EM7s5hRLTmYiFC5l0G+K7LRgHtcAP8YmVxCViC2HeC0zcoZ4Gtb3QDdUzStc3gA5DaKXsp9C57uSEchIg/Xmd5istun7OmR8hch9LW+hjCT26EteFv8L/5Jmw7JfmtV/9RM+B6MLkou0p5ZcnaIkW87d13IgWqlYMRcHsh+8NzR/uCd5zyKullDOlt1X+HkrHhfQnCmdH6ZkFnTzpSVNt8pu3qJXrmOfEJjwNWrkPbV2wp8QqPhzKDr55jyr0sPWNS/wwuqIw5yAQa5DoU9dSIl21KXDWdUKVOjMO0ouNNjwQ7yf8DZinhXOwzG2sm+kFSFkLx1tLcy166z1X1VbXJYSYEYwZ9KsZlZRW/3LtNpS1V25cbKUdQUfvEFqbfkCPv7VaJg6ACIjKjJp8zHAv2K45o3jv9s48Jl7Pgt4mYQMAQM/MyX46Sn2EveODjiEAS2Hc1KcaM3juxzwp7b0nCmIlbAAAqEPE++gK0bX9dPJsVBC5nkIFAIC8cCJqzc79nAbfuiM8+4YzATACw428SSoPLHWd/chz0dctHwZIgAAAHWJGVP3z+nRtP5JZWA4f3AECADSkn4iKwbc0HDk4JmGDIUHPSYhhR97qA/spBRoqAAAQwH7agAQIALBwYD/JuDNxJEAAjAZG3vIB+2kGEiAAwJKZn/3M61lUJEAgmr2tnSZvSq2sCArRf6icn/0I8rTKF6fXfn16bD5eNAGqEEfMV2ryReXG6e9+zfLDQrtVx0gcbEqp6HMYoch8wWsuOrxenv24Wzo/7OjblA5T5v5rx0aSHp/72bu9E/dKHnlarRsQX3kLE/dDBf0U6mIfA5JvTxm+r62/JCb0YIk32dAvG41+Fan6CUaGQ6n/qlAv/Tzf42KW2U+PkAnQMg0GmFSz2yFfONsYTDrITVL2o7+baJKyTDoCxFf6t+or11uPiLch6b91/cq7W1dRQ9/CZHY/P/n1n/UXFX/y6z+rv1/71U90f9rb2lm/taHiVJYX0ZvfTnrlumKQqPxtqCIf80xOjtHcLXHqXL/ln4HoxMK6W0KRcxTEyXGVM05RrNZY/oFwTizzesXVWLp+hhK3ABjzV+ZAiwxl3uhk3TMdsoh9ev/LjKL0IJYk3n70kzU5EZPzKEcbXa+7Nk8EUW4iw1VfWV9qyxyXmxSV/mE0siUrN/rk13+2NmbZwPjtR484pg/p+zF3S//WxSQECCNG6PuMCASuGGpGIpfo5Lf6GSC0XKWN8B76ZBJXhLgW6rS7zozrVNPHqH+ud5WEVmNlP8l6j8S1W++3xDlPrLFxuSZxlc2OMh8ZTFw/dMUZIsxOoqgZY+lCWiOel0l5JidE3ydnb0mDb3qYdn1l/VYvXw8DlMSBBKDl5kTf0IoZxOPeY6+2Dy1AhNYEV6CM3jkRBehuL+d2iz24kIW0lsecXODyY3VN+eUpweSKMAO0dCOVABHnPPTEMmuIVTHiesVjjLwxI6wel9dvbkTcmS4RIVMinrec/H2WmnpAXJuJQ/ZgP4XuGer9NflH2zu6RKwxe8FBu40zS3qfrh2qpFD9d/ItvU8XcbGMc8iuLLbJtIto0dd+9ZNPfv1nzpjehOhakXJ+MnuP3GehKMH2HvoWRh3ovCKUPFMPIl6fpzoCvU0XScKWADFbUWVnytUyQ8frsuxW9nyt23g9Rv9trvIwf66j4mNceXIRpPvar34ii1rBOBPPT+ZqeXBsEq4MJpG40bxy5alDnqkHVlwnxXpzhdh/lpOrC5ljndwJBbHlUY3HNQlbDm6kT8LWR9InBch7D9Yk+845t768oZC4I12iPN6fZyxPNBHln0ycybJPCfN81r9ehfBOvKrjJSoGesMvk7h55/H2M5kCYU57CJr8NsE7uSLuUll1zRNn3sELuFN1IMSapmhrNnIcYzKVKBdEQyWmCaTg8oB1cm6Sd46W+nCyQeiNNOZXRMnN8qRH28kQIlHUjONIVlHriTX9hqiu5ukKKq11HNV7fjhEONDktAtxOKRBTxwQ7tDk/eFxaUMiuHdjb6jkTGALQp+oxdzJ2is3LsaJTSCmOwv3ERIZkvXbuImP3t169xzmdqv2Y1Z9mQBN5r8pciVArm/V33V6hdEzCLz7NH+lJ3+EYj/dYdeBCFGqryDI065/ZdZMYuoBvVtOkYKuV7mcxlKFtBH16AAibBEyQ2nTykN8lVhUTsDcu72Tx376mUTQC2ue74k7PXhGFTTHVT8XVznxqGkUTPtJfe5HAe/JxWKX4QEAzJcIR0i69xP92/E58CRA9EJwAID2IPUJIcIRsOZbj8CZAADDA/tpBj3CBgcCAIwN7KcYyNwBmC9ov+WB/ZTEV4ORAIEOEsRPDAAAIABJREFUQcWD99QB9tMYTHIDACwT2E9h0rpR6IcCUBukPrWA/bQHCRAAYIHAfsqDBAiAuYDUpyKwny7AHAQAwNKA/VQBXSoA+gfttC6wn15AAgQAWBSwn1owOlaYgwBAM5D6VAf2MxuQAAEARgL2UxEkQAD0CVKfFsB+6oJJ2AD0BrynEbCf7kACBABYArCf6iABAqAfkPq0A/bTI5iEDQAYHthPCzAHAYAeQOrTFNhPIzAEB+bGaF0ieE9rYD/9MlprBwAADdhPO5AAAdAKpD4dcLJ1AZbNgRBr1Pf7T57BZkA6e1s7rYsAFsr6zQ3XV8h+ZgycCXCA94CG7N12Vj/YT2t8gwCYhA0AGBIMvnUAhuBALdZvOUdCFLKy/eGnL8v//uyPn8s/Cs2F2Xp3U/5x6/3tEvu3CN0vLHRlEUIqrbEOrxFJj2LtlRsXcxQPJEM6EG0/mCMHCPTBN9p+ZIC+/IM967cPvljP5RDKCVzUE8oUuFWAXpQQ4UC6/bj8CfbTDaT9CNKBYD+AgGM/epgm7Ef+keINK0JnLUIPnq6rv+sJJYRsPUxfPrtnjqc/eHo+u9Dmmd3Jt9tfntf/W03o6tXfyj8mHgP7mRtIgMaFuP9vWsLe1o7LJ4ivONLmbznGo1AOJMK9wesHK0IJJhQvFBiyDeMRxL3cFBNSQqYZmOj2UEfI6kAc+8HUg54gpyHAYBaCdAurXRFfxaEi9eUf7Hm9Z7KZd1zLLnR2z2sJk83qCfmGm1aEroQJbZ7d3Ty7myLEsQS5mdqytNClM7tCiHv3bshPOPd7dGA/nRH7NBzmJsyC9Vsb5r9WhdG9J+iHoQ6kW0KYUKADZRDixWu5mWE8ztarvgh1ILnZ5tldpiUoQh3oUOhMgJA8qBQHgv3MCUzCBrmI9h71K/lDrzFEW8LkV0whZi5CCfnitfKe1Y/93iPhO5DynrheKd+BlPfEyCQ4EOynP7AcCKhFnPdM4KQmcZaQ/tvsQkHDWS6UAxUXYjhKFqE4B4L9dInbgZAAgXToCdZcDvzxWmUkSUJHeyB8LrOQLyJHpz4K6UBeoejU53gPZ3hCgamPWaiJA3HAY6e94n4WFU+hjs36rQ16ckGW20W09zz3b7/T//v9399b+VqLPZfP7j14ur717qY5P41jCc+9vir08XuuLWsLXdk0p41xht2ee/2O/t/vPr7uEto8u7v99Lz1q+NhNzcn3lgV+sgpRMAZdgsVWr+5wcx+YD+jce6lU5gjNyS5JrzRY2UT49E/PDShTIPDEz/QPyS8oW+hO+aHJ16/I0gTsvrcMbazPfED/UOrN2ye2d3+8rxHyAYh9K1N6NKZ3Ydfnt+6ssl0IAy+dUzsEBzolr2tnck/emPzw6Iz5azes/JtSe9hfttWyJX6WL1HcYL81oor9bFaAvNbu5Aj9aF3dTJcyLKT9F2AgviWg7OCBGhGWB8j9Y6/JZJlxsHx3s7uCSEe/8e//OyDz9WHf3jnZSEyTxmoLfRzr1CqG0uPmYylv//THwqxm2P3mtAZKfTiitA7Lx8K5UMmQMyNkf10j6MKYg7Coqgw8kanPofb5MhLODuZm5A/FSASoPd/+kOmECe5IbZ5/52XMwoRCRBzNh2ynzkQlQOBrrAOmnlNZZIbNXxGFRgUfkJiAQ9gIPuZCba6iARoYAo5DXNxHeAD3pMBZD/zwZYDYRL28CQOu6F6gG5B9jMrAvtECD2zZpIA8fOhcy+dUv8KlAsg9ckD7Gf2YJJb53DmWKeTbjnTZ0uLkfdpm+pCFnP43v1Yj4J49Ccvcc+fRmB99CcI2M/cQAI0W4Ie+plgTX0iLEe9OXvKAatqEQFdn6Ns/jeU8YQI3v3jP5hbJlrLu+xDiBaSs66Zz7fCfmaIESYwB6FnUiYRmL/NP7CmGQ+dLri+ffB0/cHT9f0nzyb/5OdBuwoW2n+2v19MaP/Z5N+Dp+sPHMvk0MmN69vtp+e3n56fnLe3/+vT7S/PbzuenqGNwfWt3OH+k6/1fylC6amPwNSDuYKp2LMi0YFK3cWxpTsyIptPw2QfyPr+4/esz9wECPFGAjII8fju4+vWh3uyD7t999F163M52YfdXEJZvEcIgZdtz5lVB8LbuEcio9988us/q79f+9VPxOED/HmQaYfrfdi5FqK2CK16j2Mx0AQhx/DRkdDKYgFxcwXkeqO0UPQ7eFaEyAGxrSubXhXmAeojb3jZ9uisVgoYzNypM2ONHhabBz3NDeupLJG4xt8k5Q4Q9jNz2FUDd4D6pPIkadlHkTlEugPRqU8pIVudlz3ubELuO+dHQofxOjo006mP+oo2BpaQby5ALqGgSQcS2M/80VoAEqBZUC3Lkf+s36Ybg9d7igi54326A3m9Z3Xj+Hjt9Z6VjROMwes9XqGIYTc+sJ8h4NURJEANqWw5/I5IXLyO+FUGIV49L31EKsjGORDfe9Q2cQ7E955EoTjvEZh6MBRHMxEwB6ETao6nEegPGJlz8NQa2Pz79ipSe1MfUyhodsCKEM971FrLMYcTEkCVEP1OUh31btNIIfY0BOUiiULeU/7QLcSZegD7GYs1IWA/TenEcnRo+xGrb2Ggo3ac8YQK6YmId8zNLsQzoRWh8M67YJuQ/lLtVCHShPT0JV2IOOsPfUKwn6WyBgeqSoeWo+O1Hwn9Em6dOO8JVREhSY9FiPfKGREbpiFEC8F+FgzpQLCfdDq3HB2m/UgIe0hxnUihHHN+iWCaGKYhRAD7WTTnziEBysyMLEcnyH46YoAHahYMx36w6M6w7O8/ox0IcJip5bgovfA2AHxgPwvl3EunkAC5GMxyAOgT2M/IIAHiM7DlrN/aQNIDWmEdeZPAfpYLEqCBLWfCPG754GbPwoD9DA6dAC3QgZZjOTMD3rM8YD/jgyE4WE7vwHsWCexn6YyaAMFyZgO8Z6nAfhbBQhIgWM7MgPEsG9gPmHcCBMuZK/CexQP7WQojJUCwnNkD7wGwHyDpPwGC5QwCjAccAftZELObhA3LGQ14D9CA/SyL/ofgYDljAuMBBrAfcEyrBAiWMzjwHmAD9rM4PAmQjBRrzu9zActZBDAe4Ab2A1Y4d+7U/v4zcVDEgWA5ywLeA0hgP0uEdQcoUxoEy1kiMB7AAPYDphwmQJKoNAiWs2jgPYAH7GeheCZhTxxI+E0IlgNgPCAI2A/gYTMhWA44BMYDwoH9LJeABEhxIOo8NgTLmRPwHhAF7GfRMJ9CheUAOzAekADsBzip4DqwnLkC4wHJwH6WTv1leGA58wbGAzIB+wE1gOWMAIwHZAX2A0olQLCccYDxgALAfkBODifLlV8yDlQCxgOKAfsBQqQlQNb52ULAhGYOjAcUBvYDYrBYjglMaKbAeEAVYD+AC8tyTFQsgw91DlwH1AX2A/xEGs8EJEPdAuMBLYD9gLrAhLoCxgPaAfsBLcCIXHX2tnZaFwEslPWbG9bPn6tcDgBWODj6B0oC7wEN2bttr37IfkAfIB8qB9wddAnsB3QGfCgXcB3QN7Af0CvwoTh8ruMaiFdsXdl0fXXr/nZEiSA0sJAaWDPrlWvMTQH7Ad2jx1NYkZVMiQ4Ra/QN0gMchIYRWr+54bUZF2uv3LgY90swGMSiO3me+8kLfEgEuI4eIKzZjx5rLp/dc+3nwdN19XdcgPMJHRwJnc8otHl217XZdl6hM26hL8sKqbrwMKvQpdPOI3r41bHQ1au/FUbVomvd3u0dzHwD8+Rg9d9CKHPUKtxcPrtHeM9kA2/vOFBo5ZAun929fOQZKUKbZ3cJ75lskCR0ZpfwnskG2YX0unDpzO6lHEKXzuwS3iOEuHT6eIN7924IxmjbBGQ/4JCZZT8EgyVGOWyG6IfKcEO7jhWVCTG72KQQdZAyE+J35KUQ7TpWtuOESNexC32ZU4g4dw9DhHTj8ezXKMLDry6IoxxIHNUxZD9geRzMOTeqW/ho7wn9lVvIf5AyDWJ25CO950CIg8P4HiYU7j3qVxWELoUI6T8J8h4hxKXTn4mjHEiw0yBkP+CQcbIfJoWTJPNJz/Vbqx3AA/+sIWIw/Xi3vplswtEPTfEehcyB6P61QygswnFSk3jv0eCkJimWkFeIcxI5OZAUivOeY6HVHEgH2Q8AGmaekS/tsK8yUCatiZt3lMV71B6I/nWi96hTtenLgbJ4j2CkJlm8J4sQ8yR6c6AV70lgkgN5gf0A4MDrT45/ESvcMC3ElehEz3xtQYD3Fh83ndfA7Cqlyh6b+uhwMnKB534AKASzBUbsdjJkF+E93tTnudd/Z374/cfvWTe+fHbvwdP1rSub5vDOqpAlWj33+h2b0HVrYNs8u7v99DwhRKQ+J2xC33103brx5pnd7S9JIXeicOKNGkIHQpy0CX3rELp0ZvchKUQMu5180yb04TW70OnPHn51YevKJud5IGQ/AOSkVSKSUdfqPcTnDOwZj9V7iM+jsXqPcFhFkpBjh3mFXN4j3J9HY/UeIcTJN+9m2Hn6LgAAEmIqAee3cQlTymPnJrTHPPf676w5kMxvzNkrl8/uuYZoaI858fqd7z62dORlfnPupalQaN5z/O0bd6ypiUw7zr30ovVz167qCNEec/KNO9Yc6JJD6PiWj3GhXN5z9O1dVw7EBNkPAHmI9p5cw3RME0qcdED40x/eeXn1vz9MuUNB2Mb7P/0h8d9gIXc0f3/1iCb/Ze6EQzWh+6t7Pv5voPcQyAkInNnesB8AeiE6icllYAnDa6FCmceIXNCpT2XSh+CYZh48BBfbSUgcgoP9AJCT6AE0+ces5rCBqnQw1S0zuPcDAMjCnGcxd8+QJxf2A0ApJqkMnRjlnUFQlyFjY0cUPL9NLx0G3wDoiwgTCvqJd1nrEILXb6i3CN/slvtzMMRB2IH9AFCK9Zsb8l81Oc5mP/vgc9dXrgdLjW1YCwf97IN/6P/Vf2CdVD2Bs42TIyXX854rQoxtsuwkQsg8xa4HS0O38e/kQ4aQe+I1Z5lt2A8AvRA3AcG7MbGYbBRO15n4jf6DvF34d//4D+K/GcXeXbXqd93OXUKoRN5zZVXoyp/yH5FceJQD7v2AI2RlH+xlOXMj+g6QmfrEuY5MgFwzsL93ZCTylTz7+58an/+rcDwT+t3H14lZ0a7UR657vf9kKrQthWyPan730XVixrMrI5HLUVuEvjxfU8i6DOi3H10npla7Up+HDiH50lLrm+W+/fA68fRP4jOnAvYDpsCE0ig9fUDfv0srPd35/uP3Jg7kMp4UpMdMTChpzM0l9NF1YTx2k2XMrZWQ9JiJCWUZc1vlQHrM5PmedOOR4H0/4BBzIRNlQmO+7yc3XuOJeKkP530/+mYu4/nk139Wf7/2q58IY4UCG9yxH/ptpNHvHjWhX/mT6z0IwvcmnspC6e9BEL5X/hwKTROgmME/OfImhfC2U5DAKHOH6uCdV51lP1bOnTsl//F/4p6AkPl9RDISSedIgbkHGdCThHh7qCb0MFko6JXbSUKa93DA4BvwAQdik2u1N/7n+aYVRF5mOvXJDiF06/520FullyZEl2HryubDr85rCVCNZo/sBxyy/wQjbHMiNN2ZsL//7K3//J8HT9cfPF0v7T3pCRDnTdvHQgnpAucF2PWFUhIgZupzKPSVFEoddmOCez/gGMvtHyEEnKkn4ixHv/czSaFU//pyyO2ZB0dewg83SijoPtB2ilDIXRPlJT0LBd0HepgidPqzAKGjmdYTIdz7AWAQEtMdFypkPOBlJwdR3qNvzE+DIrxnRYidNERYQhMhfhoU4T0rQuxnd1zewwHZDzgG2U+fJLrO/v4zuh8q0W8zWDOhiT9F3+/RhayZ0HYJIVveoNtGyu2rOkKT+0DWTOhhCSFbJqT7k0vIm/3AfsAxsJ+uSM911Ix5jv1IOPe6s0w0qCPEvHU/mFAnFwj2AwKA/XRCeroz+YRvP4pJ9Ck3tw1CowrBfkAAsJ+2ZEx3Jsz2VQ5gEKz2g+d+AGhPOeMBoFtgPwC0JPs4GwBzAfYDQAMqpzty6ANDcKA+xL1G2A8AVWk4zlbtxXcAcIi3H/SkZgTiTg9gnA0AHWQ/AJQF0woAsAL7AaAUSHcAIMhgPxjYaYj1fWWTb0FlkO4AwKFG9kMs3pD3Md0FCq3f3Ni7vbN3ewedgB6A8QDAp6z9eFcNUhskRu0lC8GBegDjbACEUsp+9OhJvzpCrpwqt48I2StC5Msw5FqwWYTo13tsVxdSDiQwFloXpDsARFPkfT/6O4u8ry3Stwl9s6z+Fibvi5j0baKFNs/sel8tpW9TR2jryua9ezeChEAi6W/f2d9/Bu8BSya//cgAyjEenQgHOhRiGM+KULgxyC05fqAT4UCJQtKBMN2gNGHGczD9J10HxgNAZvtR3hPx2yAHOhLajXgreZADKZOLePt5kAMp7wnXgQPV4NxLp+Q/01Gofxr7T55h7XAAFPEvXFAxTt1sSPEeBefVrcfeo1gLF2K8jFZ5T4IO6/W6Kd4zEbp1f1vdBDKvkQnhVa/98ifyj8SgSduhtWzETIr6kyxc76FgAssBwGTv9k6Rez8pRLpXQg5UWCfVVEKF5EwEwcuB6G0++c2f00vlLYa5AfGTyondYboTC9IdAAiy2U+W1Ecid+IasLKkPpJYB/IIGeYR7UC0UBaXmjiQF+9m6Q60fnNjdpPxjsfZYoHxAOCl3qI7J9+8O/nk2w+vZdY4EGJNnHzjzlToo+tx+3NlSAfCoiKE+C5WiPCeE7FC+uAbvZn6+9xLL6q/P/nNX7y/5TOXdRkwzgZANfJkP7L//vbpz6yZwck375reQ3wu3AmQM/U53OEdqyucfMP+uXAnQPRkAdfeTrxxx+oWwm0wtJBrbxFCCUTkezMD6Q4A9cmf/Rys3p93GYwX6UB6f1y4jUcIcfJNezj2C53ZtQi5g7jLe7xsntl99B+vvvvB55MPXdu7DIbD1pXNvMv/jEpiuiOQ8QAQS5GpB0G95Wh/CiXaNkJJsY0+hZpQelwuS7oD7wEgmmz28/bqpIPK4zXRqU+wEKylPEVvFGGcDYBOKDj14ECI52tlNnm5/87LdYTeryXkxRXZX/vlj0tL0D8xrShlHh1mFgDQD1089xMy/mY8Sg5mjtVOSszVjvYejLMBUIIu3nYaPgP7IGr9AS5XPvi8WgLUCTLcmxOvP/nNX3IlQKajyHyIuYpB4shbnPfAcgAoR9ns55vsT/Ycs5IDffth5AM3oTAfIWImaJNZcDrRjxDVRL7lIdoYIlynzhOsSHcAqEA2+3l0tFZbRcJH4SqO2w0/SqgbQ4lZak3WSoDrAFCN4oNv33x4jZ6A4Bp5k2uP7j/5zPxQW9rneBTu2w+v0/PfDjMkY9xOrj26/+RT80Pr0z/ffnSdnv+mZ0i62rZNSH5offrnu4+u0/PfZpEhZaHC4ghwHQAqU2PqATEER3sP78HJ4xyDGIJb+UrLSh4erRLNENL25o775lcyDdqOEiIMxvVVnFAE1bITzrrd0WCcDYBW5LEfGeyI8bdvPrw2MaFvP7wWseabFHo4FVpxoIkJmZ+s/oIUOnpXgsm3H12fOI35CQcptO0W+u6j6xOnMT9phVxOtNyiorNbqxQAwKfqzDfpQN4payGpj2JlTI01E+FAPPwqNVFg+k1cjqXD9JuI1KfCuFYWCVgRAIORbfDNmwApEm/IOxKg9B07hNx5SV4hIgFqSMbHTl3QvgLXAWBUcr7tVGhLX/uFHZ8zUx/364W4zwMxUx/XW3/4MFOf9Lf+mKlP6F2Tybqriv0nX0eXqhNcz/3grg8ATSj1ttPoHCh02M2RA/nToNBht+gcKHTYLToHqjbjAAAAspDZflT4i3CgIO9Rm9kcyNz3RCggUh8LhRtDkPeozUIdaPvL8/AeAMDsyDz4plBvUfMOxK1pFhIRQJUQZyBOGk+qEGN8THlVihBnIG6bFMLgm0I7tJVagcE3AJqwd3unlP0I4z2epg9NMqTozvtEaNWH1oTmOpmFDHuYZEhZhFwmpCdJLiHYj2LgQwNgjuzd3ik48VrGRBVJieG4xFGjiZBjOK6AkHuULK+Qd0sAAJgdxZ/70eOjHk+zx81RhWS3XX8zkFyodLJ4DwBeKjzjBYAV6wBMhsE30D8YfBv40JigwYK2TKJQqYnXAAAAAE0Xr5sDANSEv5aEGl4ufZcRQvMVkom1tVLROXf84BuoQ81Ro4FHqAY+NCZ6IKDtxzvnJVeYg9AwQi4HImpd0sRrUAfYTxYGPjQmHPuZxBpz0j9nuj+HVkL0wxI5hU6vCOV69sMmZHkjWgmhyZMz5mMzVgeiax3sp3dgP1kY+NCY0IGA86iZDv28M0GQUIoJ6ULeR8VTTGhF6LRP6KtcQtTj/Aer9pAi5F03QBe6evW3YrV2uWqd/BxTDwBYOvpCG8xFb9VmnKfTooX0zeKELp3Z5SxTom8WKXR61+s9k81ihT7zeo8Q4u3TnynniBPS90Dw9unP3j51uNm9ezcEY46l2gD2A8CiCVrkSUd5AzO61RcKXag+1IF072GLHAhxcCnQGMilxaZ71wl1IP5iaRNJvgPpY3SwHwCWS7QlKJjGkC50KVAo7iUpKg0KEArzniMhtjFEe4+E70DR3nP4K4YDTe4PjWk/e7d3Cj1kJ/eMJ/jmhevGD5CkvGVKwelfxwlN3qHCEUp5QVeYUJT3HP2WHeVjvUcSYCex3nP42yMHkgYziZPm3IQx7WdCXrdYv7mBV3CCAUh/w6HEu4dooYnxeE0l/eWQYUJc73G+hEyaCuFz7vdqTgVo3uYJpXjPodCpQyFrkJx8OL79IFMBIJoTb9xR/4jNgu7N0ELyv66A7R0Z8zrHyTfuyH/0Zn4hn/ecfPOO/OcRchsDx3tOvnn35Jt3n3/z7vNv3qWFCAfieM/zRyrPv3mXtrtJDqQwDQmrHgTj9TPkRqB/vBmJ6Tfyk+8+ul5USP7320AVwTC/ieWcLCe0ajkn37wrhPj2w2uhQj6Vu5NPpAN9k1vINLbnL94VQnzzN0po68qmd8I37CcYuAsYHiLXOfHGHasDbZ7ZjXhVvEuI8IZLZ3ZDXz1M5DqU0OndyeOifiF3rnPyzbsZHcj0HsXzb97N6EBEUvX8xbu0A3kZf/ANAGDFlZHQ42w01sygmlCWGQeHHI0v2YUCZhwc4/IM6/gb866PFZdnWMffgu/66EIXHUKnWHsb2X70KWpqxlr61DXcTAJzhxg+4lgC3zYShbx3aDhCnJ2sbOOcKOAT8t3mEWTWwoezE++tIA6cnbgcSDBGKUe2Hxq4CACt8M7UagNpPD3QfQHDGPPeT7nbM/3c+Dn30ovLWa8MjEHXoTO1cMUPruuzF8WY9gMA6IrxQqdGjYMb8gQud/ANAFCHIUPnEfCeeMa0H/6Sq/3sGYAeCH2sZ8HUuBETrZFh7jVPOGXu9Zj2I+ATALiRzwNGPKYj4VsU8eAh53lP/jOhqUIfhgpZYjPnsR5im8khEEeUaC0soQMh0qxFHL3+h2BY+wEAxEG7i/XbgyMzs8Yy11OitDG4vn2YXcjhPfKZU7vQ6rs+tV1dI4Xs37r2JoyXiipoB3J969rbylerCRftQK5vHz1zCunAfgAAU1wONPn8IHkEymUMEWvheIQcHsPPe9hC14I+j8blMUm5ke1aujwmMTcSy5n5tnd7p8ScaevrzQHon1v3t7eubG5/ed61JIHLgULNRgo9/PK8a0mCIKchUh+n0FGJg5yGSH0Ohb664FqSIMhpZOpDCD366oJrSYIgp3nEEXKsVhDkNDL1uXV/++pVz5bIfsBywYNTfOhEh3CFlgz2lObc8PbLYT8ALBTOBATO8JrXe+RXoeuEJgmlGQ+R+qwIuW+lsIWcGYkuRNyzYUKkPitCvHs2lNAzj5DOyINv1nftZd9txj0DUBnrEFxQ3GaaincILrPQV+fjVgUVR97DFnIOwTGEWJHaOwTnxes9K0LPnENwfqEQ7xGj2s8SFt0BIAvKgSKMQVkCJ+KkOFCQ0OFPohxIeU+IUIwDRWROcQ4UkTnFOVBE5oTBNwCWjhqzChofi7CEOkK37m8fDY6dD3phT6j3aEJhkVdtzxeSf4R6yaNooUAvUXlP0P2/tVduXAySAZU599KLrq+y3zl3ac39Fv2oxxWEPkRsTeL15fHpBCXCeNoLkZlQRNJjFfKmQaHG4xLypkGhxuMU8qVByqisQkSt27u9g+wHACDEateVyE4SLUGw+8j1hNK8R/8hnQYleo9gp0GJ3iPYaRDtPV6GzX7ovl7K8zquR4iUYt77Q8h+0hn1uILwZj86W1c2XXnJpf/6NGOpqgk9vPqq7eMDIcSle5F32h1CznidV2jbLbSZV+jf3UL/7RGis58xpx6Yc97UkSeahGuSGya/gZG4dX+b6PfMUejKnz6voCKEuPKnf9QR+j/VhP7/UkJj2o9EGoz+vu3JVym71dFzqew+9Mlv/hJRpLmQ66LQ6OfwtV/+OPv+ORe9q2uE3hLogZHtR6fQyFih3ZqooKki6Wu//LEcO9q7vVNoSaGiuB6fKnSB5An85Dd/kSewhAkBAAjMMLUU+5EUitE1Q/9rv/zxJ7/5y9yjp9W25YcZrXTiPeLo7IkjF88l5NpPV0nG+s2NrsoDFoWsfpPWvRT7ye4Q1fKe8XBlOWr0MosD6Sr63QWVBiXun6Mu6aeGBJWk2nyNwYSqzRWanZDpQJh4HQO8JxHivGU8pcSuCqWPsnUp55P/SgiBblnUdMpQJjfIR85+9B6oddghZfKbawIC4FDnXNW8In2mOwD0hsqBxKj202TNt2pBZ+43fqqhroh19CDj+BtncVt4EgASlQONaT+gc+hYjDwSgOFZv7kx7KoHIzHYvdn6jHpcRRmv1kEor0qiENZ8AwAA0IZF2I8+Hyl9V4kbAAAAEKMYM5FiAAANb0lEQVROPZDUea4eAAAGZv/J14XW5RvWflyP5uiPZTQoVjimiZZ7ZqWCiilkJddjp6VVlJZ3MsVc6ptovYTdZEZiFiFvI8p1gZqfuuzNdnJmrPNFo49oTPshDKbco/WFWL+5oboe+oIx2XUnQvrichlVBFnsjEOXusqk71Z6yYMxcF33/SdfFx1hVrrZhfSFE4uuXDVZobHQEVl3pdftcnEp1xGNaT808709M6nW5cxPX5mmkNtNqPDYZul1rwEQq904QDOm/egP1gotnA3zaLqMnrLrUdqEhOZ2JVRKr2B07qUXKxjPfPs0DcFJS2Hic3qmNZcnCsa0H7G6vu+klieGOdeMhsrUybJFyaGqCr2Baje0AAChDGs/wvb+t1lnPJISN2YrC+XtDXBUKrgO1nGIptVNJsCk3FUY2X4k2e/PZ9wbB+u1L5FiE0JFqbBCmiuBG6A7Uo7hJ2hUOMC200ezYL6yJGMxxrefkag5doRxqsVS88V01W7U60LqrYMgnZQ+HNZ8mwHNl5AqoVWNIQ+qAs1rHYTGFsKabwAAANow5uCbdy5y9GRl4rY5XoEKAAB8kP3EgFedAgBAImNmP0WR3mN9rqjoU5mcUqUL6TMOzNuzudbF8vp3lsMxd1JoNrl5jUbNgOssgQGhdJVZCI1sPxUykmoDbtZVpOR9v0KHWXS5KivWxSmyo68nlAtzDHZey9rSFOqFQAhCI9tP/aUtK4A5o1kodxr1h51nfTtwcn7UGct+LIMJWVfXHlLotV/+OHGK3cj2U4E5hpUeqPMCAlOl2sNMk0xuvi9cKHrGILRwIdhPMPr1qPDEfmWqpVaTiJz9pKllZ1s9Pzvf1Z70+5rl3rsBIQiNaT+c1j6viDAS+iuXRMkLIVvO5CaWZNbrqFaAeMtU3kyuB6G8LEfok9/8JfECYdWD3jEnpCn0qQdZGiqxQECdMWVFuRVOS6iMlwQL3zv6Mh4dhJYptHd7B/YzA5ovrSGOZr5lD6kVArc8KPO2c8azN0bGM4GodXlrAoSWKQT7mQed2E9erWpUO3uD0bzWQWhsIaz5BgAAoA2wHwAAAA2A/QAAAGgA7AcAAEADYD8zps5rIgEAoASwHwAAAA0ou+pB3Mqe6W+Bg1BRlfGEur1ANRnv1EGoc6FSz/0kLinNPwwIQWhgoWqMd+pShIIuEITihEo995P+OgPmHiAEoYGFqjHeqUsU4v8cQik/z5/9pL/jhLmH5QjxFyOYixCfdCHmA9u9HVE1QiuD+aB7oVrXXMh7gRKF+DVhPCFRIvvJ0rQ4b72EEIQGFqrGeKcuoxB9gdKFmDVhPCFFTvvJ2K2jDwNCEBpYqBrjnbrsQq4LlEvIWxPGE9LJNvjGKf3WlU3r57fub/P32Y+QSyW70PbVCy6hzXufzVGo2qnburJ56bS95Je6PKJqeNUfOiqD67y59hld61xVrr7QZId+oX93CP13QJXjCD1wCF3OL3R+5f8HR0L/326Q0GSbPPZDixEtU8faSid7XqbQ244AKoR49NWFOQp5ySjksp+H/R1RNThHRJ83Ub7WPepJyOzUU0KnHELPnELmbjlCbzmEHucX+vT4o4PjPx9//SpfyNwgg/0wG+fKAazy+Nmr6m/iMBQ+oZVLsqb9rS5/FiFXJcsv5HMFq0rPQq7QJtjRrQch3XjShao5EKFIHJEWczJUBl2oaK3LKLSuvXbaI8SIDHS8Zgq57EewHYgtdBS9DyZbxTtQBvsJdk43yoToeB3RFxAOEwoV4hiPTgYhd4NZEXI3nt6EiDCtQ4TsgYUqOBAn3KgjMkLNCpyEmBYKqnXFhQ4OG2ySUEhk8HZMCSEi1uk8ziDkNJ5jlSgH2ss18y3de/QtzdEMtf847xGrp05VkVChyc+9pArxGqe+ZZBQaBRIF2JGan3L8YRM6t/7oSvDgRAHPu8RR5XBOvZYotYVFDo6Wtlg44UCIwNR5WghpvcIcSCDaoKQ33uEEG+9+OlbL3qErDMRSq35Fuo9ktDtBc97JHqL4leUiVDoD+OF2I3zUChw++gfpggx45qEH9kTf1hZiHmvqAlxlYF/RBHeU1DIVh0JB/IIRUUG2hisQnzvOdre70AOIZb3KLwOZFJkzTfCe164+PvJJ//82y/0/7516tPHz17durLpmi9kE7Jcjxcu3jWEromjM7kmxNunPnv07EKQkLWGPb8q9M3frk02iBGytZnn31wV+tAQOv3Zo6/mIXRgE/rWELp0+rOHgUJWSzg5T6FqVKsM6icdCaU1WPUTi1DWyCDhxLpJRBWBQVX95PCvI+95YcMI3TuG0IufPv46QKjskqM6pvGoz1McyLbDu67P/3lUAw7CHcjkeZuQ/HBS1VKFVhuM/uGklUY00RQh5m7NKGAVOnkktGZ+58NlCSfdQqY3dCVUDZf38CvDvIVsDTZMyLAEZmRgDgMIdz/bGutkpDVNKETo00n5TO9RH5omxCf/4NvhAbz46UrpHd7D+dYjtHpJXN5jfssfBbJWMmsNY37rEVptNtY2w/y2tJB3jMK6gVfoQBsXCR110bFaguvblJGxakLVCKoMKdeoF6HVBhs6BEfsyvqtCj5vJQj5Yt1KUHUNwTnxeY/rW9cQnJXC7/thx3jrySoBfc0yEudAQoR0iqRQlANFkEWIs5MsQrQl8LfpR6gcQR0R/jZdCB0IcVCwjQT1SlWJIgjqZ8dhzxxI70mkxuvm4pIbwbDQ9EvC7H1EVDLrHrhCR7Yd0WyYN3UjAkEWoQj4Qgf228lcvFMJiLs+eYWqUS0JayAUWA9CG3X0EYWGqQShgs6xIhRrUUXsR+ZfodQ7WV0mQJZKxm48pnkQVTYlEFQTCtpbNaFcxLljz6R3MjILaac4bhwiYs5qnBB7JtsxcREsYkipaOoj5vuy7fF6bUCn2ojiydVbTRwOVv9FCEn6rFrzGssFXSGr9wY7/Zir/RwxXj8SAADmR0Qsnqv9aBOLo4f6Q4VA5ERYCFmF+qxaA575qEnVvQqVDXfR6GXa+fpV53arFLGfx2x5nbiJ6kcEXJV/dlkdU4JRUGjLG/UWJQRc8B8Cm43Qs0pCj7lCxyEuLlTqKzszSXmmh0ON7Cf6GLyBYHJCI66Ka0m+CY+eXdDNLaKbQ6xmaG4WLKQVjtk+J5tFdEU7F4rAuwd5+SoIVaOa10YLrVQYRg8zXiiwUU+E+P3f0O5v9BGldegD+L+xEb6XwbfJmYowarbQtejfBiW9tVP+lBnHTKFZDctwdjIvoXJEdBHijiiyLxJetyO7ceFIIVW0ciMr6V1tL9LnJmNXRROg/PYTcQxxR3goFHJV4irHkdBhPZNVja7QcdX9sHMd0nKShEJigfVbb7/MukGQELHYvpfxhKrRy6n727WVzJ43hODcFfvbIKGJLdJBZvItc/TFsSs61lk69JFCZHyepD7yxg9TqF7288+dX5iHcfyh1rtJOVNCiH/+7Rfmhfnn366Z1SL62svCfvO3a2adtn6Y0mxc+ywi9OE1MxxYPwwaPjI35gsxcQ2LzVeoGp2eOlv1DhMy7qnw21GQkHnzxhptrB8GCk3HhByxzvJhmJBx894avf/vzi+ih90kRZYcvXV/e+vK5uOvXzWfP/UkOgeHR84MoIdCz141n6havQCWRSyDvOdI6IL+jBgnDRKBliCFHj27YD71VkToqwvmc3ze+BLU24VQtFA1Kh+RXShr9VY/Kd2OJJPIIPGaTUT3lxHr7L8KFnJEb3oENCj1EeWyH5eL0kRMmXP1C1aZjhyzZ5uYQtMf0oPSEfNnXH03muiJOqG3waNvm0OoT+/RKX1EastjId59nVBLOBaKakcRQqEhhfkeUptQSJA8cHqPX8iIxnHe4xISuezHKhDqQJw3tlJC/qtyePY4b0EnTpm1nlkbEedl24QQv+XECVligVeI8cZoCNFCJkQdKETGI6JfTe0R4s0m4LwDmxIKbEfRQnwH4ngPKcQLqu7BJK7QUUz29hC83mN96dzaKzcukrv1QwscvzvPvRKDblEc8/QIuZc20i9bDiHnYk16RUwXIpafepRXyL2gFhGmFyukr5qTLlTtlduEYt4jUniEGNW7B6H1mxvMU8eJDHSkZgs5Yt0BqzfPFyLW0dnhCZk/3Lu9k8F+vDLMta04jRNCEBpYqBrjnbrSQmq3hYTM3Y4nZG6Qx344YsJ9JK6RVus+vULE+YIQhDoXqkb/p464AVNZaLLD7EKuHY4nNNkmm/0wJbPsDUIQGlioGuOduhJCroGjXELeEarBhPTNcs58M7O5aOgDgBCEBhaqxninLruQ6wLlEvLWhPGEdDJPvM5yDJwDgBCEBhaqxninLqMQfYHShZg1YTwhRc7BN7MQKXAOAEIQGlioGuOdunQh5gWCUIpQkcdO05sWcw8QgtDAQtUY79QlCvF/DqGUnxfJfhRxRhpx/IMJRXdAINS5UG/GozNYI4JQ50KZZ74BAAAAHEoNvgEAAAA0sB8AAAANgP0AAABoAOwHAABAA2A/AAAAGgD7AQAA0ADYDwAAgAbAfgAAADQA9gMAAKABsB8AAAANWDs4OGhdBgAAAIvj/wGRqnv1Kap25AAAAABJRU5ErkJggg==;movable=1;resizable=1;rotatable=1;deletable=1;editable=1;locked=0;connectable=1;" parent="c-pm6wDFBp0grKCKoOtM-146" vertex="1">
          <mxGeometry width="554" height="725" as="geometry" />
        </mxCell>
        <mxCell id="c-pm6wDFBp0grKCKoOtM-75" value="" style="group;movable=1;resizable=1;rotatable=1;deletable=1;editable=1;locked=0;connectable=1;" parent="c-pm6wDFBp0grKCKoOtM-146" vertex="1" connectable="0">
          <mxGeometry x="22" y="116" width="520" height="518" as="geometry" />
        </mxCell>
        <mxCell id="c-pm6wDFBp0grKCKoOtM-6" value="" style="group" parent="c-pm6wDFBp0grKCKoOtM-75" vertex="1" connectable="0">
          <mxGeometry y="455" width="136" height="30" as="geometry" />
        </mxCell>
        <mxCell id="c-pm6wDFBp0grKCKoOtM-2" value="" style="ellipse;whiteSpace=wrap;html=1;aspect=fixed;fillColor=none;strokeColor=#d6b656;strokeWidth=3;" parent="c-pm6wDFBp0grKCKoOtM-6" vertex="1">
          <mxGeometry width="30" height="30" as="geometry" />
        </mxCell>
        <mxCell id="c-pm6wDFBp0grKCKoOtM-3" value="" style="ellipse;whiteSpace=wrap;html=1;aspect=fixed;fillColor=none;strokeColor=#d6b656;strokeWidth=3;" parent="c-pm6wDFBp0grKCKoOtM-6" vertex="1">
          <mxGeometry x="35" width="30" height="30" as="geometry" />
        </mxCell>
        <mxCell id="c-pm6wDFBp0grKCKoOtM-4" value="" style="ellipse;whiteSpace=wrap;html=1;aspect=fixed;fillColor=none;strokeColor=#d6b656;strokeWidth=3;" parent="c-pm6wDFBp0grKCKoOtM-6" vertex="1">
          <mxGeometry x="71" width="30" height="30" as="geometry" />
        </mxCell>
        <mxCell id="c-pm6wDFBp0grKCKoOtM-5" value="" style="ellipse;whiteSpace=wrap;html=1;aspect=fixed;fillColor=none;strokeColor=#d6b656;strokeWidth=3;" parent="c-pm6wDFBp0grKCKoOtM-6" vertex="1">
          <mxGeometry x="106" width="30" height="30" as="geometry" />
        </mxCell>
        <mxCell id="c-pm6wDFBp0grKCKoOtM-14" value="" style="group" parent="c-pm6wDFBp0grKCKoOtM-75" vertex="1" connectable="0">
          <mxGeometry x="314" y="488" width="206" height="30" as="geometry" />
        </mxCell>
        <mxCell id="c-pm6wDFBp0grKCKoOtM-8" value="" style="ellipse;whiteSpace=wrap;html=1;aspect=fixed;fillColor=none;strokeColor=#d6b656;strokeWidth=3;" parent="c-pm6wDFBp0grKCKoOtM-14" vertex="1">
          <mxGeometry width="30" height="30" as="geometry" />
        </mxCell>
        <mxCell id="c-pm6wDFBp0grKCKoOtM-9" value="" style="ellipse;whiteSpace=wrap;html=1;aspect=fixed;fillColor=none;strokeColor=#d6b656;strokeWidth=3;" parent="c-pm6wDFBp0grKCKoOtM-14" vertex="1">
          <mxGeometry x="35" width="30" height="30" as="geometry" />
        </mxCell>
        <mxCell id="c-pm6wDFBp0grKCKoOtM-10" value="" style="ellipse;whiteSpace=wrap;html=1;aspect=fixed;fillColor=none;strokeColor=#d6b656;strokeWidth=3;" parent="c-pm6wDFBp0grKCKoOtM-14" vertex="1">
          <mxGeometry x="70" width="30" height="30" as="geometry" />
        </mxCell>
        <mxCell id="c-pm6wDFBp0grKCKoOtM-11" value="" style="ellipse;whiteSpace=wrap;html=1;aspect=fixed;fillColor=none;strokeColor=#d6b656;strokeWidth=3;" parent="c-pm6wDFBp0grKCKoOtM-14" vertex="1">
          <mxGeometry x="106" width="30" height="30" as="geometry" />
        </mxCell>
        <mxCell id="c-pm6wDFBp0grKCKoOtM-12" value="" style="ellipse;whiteSpace=wrap;html=1;aspect=fixed;fillColor=none;strokeColor=#d6b656;strokeWidth=3;" parent="c-pm6wDFBp0grKCKoOtM-14" vertex="1">
          <mxGeometry x="141" width="30" height="30" as="geometry" />
        </mxCell>
        <mxCell id="c-pm6wDFBp0grKCKoOtM-13" value="" style="ellipse;whiteSpace=wrap;html=1;aspect=fixed;fillColor=none;strokeColor=#d6b656;strokeWidth=3;" parent="c-pm6wDFBp0grKCKoOtM-14" vertex="1">
          <mxGeometry x="176" width="30" height="30" as="geometry" />
        </mxCell>
        <mxCell id="c-pm6wDFBp0grKCKoOtM-15" value="" style="group" parent="c-pm6wDFBp0grKCKoOtM-75" vertex="1" connectable="0">
          <mxGeometry x="314" y="416" width="206" height="30" as="geometry" />
        </mxCell>
        <mxCell id="c-pm6wDFBp0grKCKoOtM-16" value="" style="ellipse;whiteSpace=wrap;html=1;aspect=fixed;fillColor=none;strokeColor=#d6b656;strokeWidth=3;" parent="c-pm6wDFBp0grKCKoOtM-15" vertex="1">
          <mxGeometry width="30" height="30" as="geometry" />
        </mxCell>
        <mxCell id="c-pm6wDFBp0grKCKoOtM-17" value="" style="ellipse;whiteSpace=wrap;html=1;aspect=fixed;fillColor=none;strokeColor=#d6b656;strokeWidth=3;" parent="c-pm6wDFBp0grKCKoOtM-15" vertex="1">
          <mxGeometry x="35" width="30" height="30" as="geometry" />
        </mxCell>
        <mxCell id="c-pm6wDFBp0grKCKoOtM-18" value="" style="ellipse;whiteSpace=wrap;html=1;aspect=fixed;fillColor=none;strokeColor=#d6b656;strokeWidth=3;" parent="c-pm6wDFBp0grKCKoOtM-15" vertex="1">
          <mxGeometry x="70" width="30" height="30" as="geometry" />
        </mxCell>
        <mxCell id="c-pm6wDFBp0grKCKoOtM-19" value="" style="ellipse;whiteSpace=wrap;html=1;aspect=fixed;fillColor=none;strokeColor=#d6b656;strokeWidth=3;" parent="c-pm6wDFBp0grKCKoOtM-15" vertex="1">
          <mxGeometry x="106" width="30" height="30" as="geometry" />
        </mxCell>
        <mxCell id="c-pm6wDFBp0grKCKoOtM-20" value="" style="ellipse;whiteSpace=wrap;html=1;aspect=fixed;fillColor=none;strokeColor=#d6b656;strokeWidth=3;" parent="c-pm6wDFBp0grKCKoOtM-15" vertex="1">
          <mxGeometry x="141" width="30" height="30" as="geometry" />
        </mxCell>
        <mxCell id="c-pm6wDFBp0grKCKoOtM-21" value="" style="ellipse;whiteSpace=wrap;html=1;aspect=fixed;fillColor=none;strokeColor=#d6b656;strokeWidth=3;" parent="c-pm6wDFBp0grKCKoOtM-15" vertex="1">
          <mxGeometry x="176" width="30" height="30" as="geometry" />
        </mxCell>
        <mxCell id="c-pm6wDFBp0grKCKoOtM-22" value="" style="group" parent="c-pm6wDFBp0grKCKoOtM-75" vertex="1" connectable="0">
          <mxGeometry x="314" y="347" width="206" height="30" as="geometry" />
        </mxCell>
        <mxCell id="c-pm6wDFBp0grKCKoOtM-23" value="" style="ellipse;whiteSpace=wrap;html=1;aspect=fixed;fillColor=none;strokeColor=#d6b656;strokeWidth=3;" parent="c-pm6wDFBp0grKCKoOtM-22" vertex="1">
          <mxGeometry width="30" height="30" as="geometry" />
        </mxCell>
        <mxCell id="c-pm6wDFBp0grKCKoOtM-24" value="" style="ellipse;whiteSpace=wrap;html=1;aspect=fixed;fillColor=none;strokeColor=#d6b656;strokeWidth=3;" parent="c-pm6wDFBp0grKCKoOtM-22" vertex="1">
          <mxGeometry x="35" width="30" height="30" as="geometry" />
        </mxCell>
        <mxCell id="c-pm6wDFBp0grKCKoOtM-25" value="" style="ellipse;whiteSpace=wrap;html=1;aspect=fixed;fillColor=none;strokeColor=#d6b656;strokeWidth=3;" parent="c-pm6wDFBp0grKCKoOtM-22" vertex="1">
          <mxGeometry x="70" width="30" height="30" as="geometry" />
        </mxCell>
        <mxCell id="c-pm6wDFBp0grKCKoOtM-26" value="" style="ellipse;whiteSpace=wrap;html=1;aspect=fixed;fillColor=none;strokeColor=#d6b656;strokeWidth=3;" parent="c-pm6wDFBp0grKCKoOtM-22" vertex="1">
          <mxGeometry x="106" width="30" height="30" as="geometry" />
        </mxCell>
        <mxCell id="c-pm6wDFBp0grKCKoOtM-27" value="" style="ellipse;whiteSpace=wrap;html=1;aspect=fixed;fillColor=none;strokeColor=#d6b656;strokeWidth=3;" parent="c-pm6wDFBp0grKCKoOtM-22" vertex="1">
          <mxGeometry x="141" width="30" height="30" as="geometry" />
        </mxCell>
        <mxCell id="c-pm6wDFBp0grKCKoOtM-28" value="" style="ellipse;whiteSpace=wrap;html=1;aspect=fixed;fillColor=none;strokeColor=#d6b656;strokeWidth=3;" parent="c-pm6wDFBp0grKCKoOtM-22" vertex="1">
          <mxGeometry x="176" width="30" height="30" as="geometry" />
        </mxCell>
        <mxCell id="c-pm6wDFBp0grKCKoOtM-43" value="" style="group" parent="c-pm6wDFBp0grKCKoOtM-75" vertex="1" connectable="0">
          <mxGeometry x="16" y="173" width="439" height="30" as="geometry" />
        </mxCell>
        <mxCell id="c-pm6wDFBp0grKCKoOtM-29" value="" style="group" parent="c-pm6wDFBp0grKCKoOtM-43" vertex="1" connectable="0">
          <mxGeometry x="233" width="206" height="30" as="geometry" />
        </mxCell>
        <mxCell id="c-pm6wDFBp0grKCKoOtM-30" value="" style="ellipse;whiteSpace=wrap;html=1;aspect=fixed;fillColor=none;strokeColor=#d6b656;strokeWidth=3;" parent="c-pm6wDFBp0grKCKoOtM-29" vertex="1">
          <mxGeometry width="30" height="30" as="geometry" />
        </mxCell>
        <mxCell id="c-pm6wDFBp0grKCKoOtM-31" value="" style="ellipse;whiteSpace=wrap;html=1;aspect=fixed;fillColor=none;strokeColor=#d6b656;strokeWidth=3;" parent="c-pm6wDFBp0grKCKoOtM-29" vertex="1">
          <mxGeometry x="35" width="30" height="30" as="geometry" />
        </mxCell>
        <mxCell id="c-pm6wDFBp0grKCKoOtM-32" value="" style="ellipse;whiteSpace=wrap;html=1;aspect=fixed;fillColor=none;strokeColor=#d6b656;strokeWidth=3;" parent="c-pm6wDFBp0grKCKoOtM-29" vertex="1">
          <mxGeometry x="70" width="30" height="30" as="geometry" />
        </mxCell>
        <mxCell id="c-pm6wDFBp0grKCKoOtM-33" value="" style="ellipse;whiteSpace=wrap;html=1;aspect=fixed;fillColor=none;strokeColor=#d6b656;strokeWidth=3;" parent="c-pm6wDFBp0grKCKoOtM-29" vertex="1">
          <mxGeometry x="106" width="30" height="30" as="geometry" />
        </mxCell>
        <mxCell id="c-pm6wDFBp0grKCKoOtM-34" value="" style="ellipse;whiteSpace=wrap;html=1;aspect=fixed;fillColor=none;strokeColor=#d6b656;strokeWidth=3;" parent="c-pm6wDFBp0grKCKoOtM-29" vertex="1">
          <mxGeometry x="141" width="30" height="30" as="geometry" />
        </mxCell>
        <mxCell id="c-pm6wDFBp0grKCKoOtM-35" value="" style="ellipse;whiteSpace=wrap;html=1;aspect=fixed;fillColor=none;strokeColor=#d6b656;strokeWidth=3;" parent="c-pm6wDFBp0grKCKoOtM-29" vertex="1">
          <mxGeometry x="176" width="30" height="30" as="geometry" />
        </mxCell>
        <mxCell id="c-pm6wDFBp0grKCKoOtM-36" value="" style="group" parent="c-pm6wDFBp0grKCKoOtM-43" vertex="1" connectable="0">
          <mxGeometry width="206" height="30" as="geometry" />
        </mxCell>
        <mxCell id="c-pm6wDFBp0grKCKoOtM-37" value="" style="ellipse;whiteSpace=wrap;html=1;aspect=fixed;fillColor=none;strokeColor=#d6b656;strokeWidth=3;" parent="c-pm6wDFBp0grKCKoOtM-36" vertex="1">
          <mxGeometry width="30" height="30" as="geometry" />
        </mxCell>
        <mxCell id="c-pm6wDFBp0grKCKoOtM-38" value="" style="ellipse;whiteSpace=wrap;html=1;aspect=fixed;fillColor=none;strokeColor=#d6b656;strokeWidth=3;" parent="c-pm6wDFBp0grKCKoOtM-36" vertex="1">
          <mxGeometry x="35" width="30" height="30" as="geometry" />
        </mxCell>
        <mxCell id="c-pm6wDFBp0grKCKoOtM-39" value="" style="ellipse;whiteSpace=wrap;html=1;aspect=fixed;fillColor=none;strokeColor=#d6b656;strokeWidth=3;" parent="c-pm6wDFBp0grKCKoOtM-36" vertex="1">
          <mxGeometry x="70" width="30" height="30" as="geometry" />
        </mxCell>
        <mxCell id="c-pm6wDFBp0grKCKoOtM-40" value="" style="ellipse;whiteSpace=wrap;html=1;aspect=fixed;fillColor=none;strokeColor=#d6b656;strokeWidth=3;" parent="c-pm6wDFBp0grKCKoOtM-36" vertex="1">
          <mxGeometry x="106" width="30" height="30" as="geometry" />
        </mxCell>
        <mxCell id="c-pm6wDFBp0grKCKoOtM-41" value="" style="ellipse;whiteSpace=wrap;html=1;aspect=fixed;fillColor=none;strokeColor=#d6b656;strokeWidth=3;" parent="c-pm6wDFBp0grKCKoOtM-36" vertex="1">
          <mxGeometry x="141" width="30" height="30" as="geometry" />
        </mxCell>
        <mxCell id="c-pm6wDFBp0grKCKoOtM-42" value="" style="ellipse;whiteSpace=wrap;html=1;aspect=fixed;fillColor=none;strokeColor=#d6b656;strokeWidth=3;" parent="c-pm6wDFBp0grKCKoOtM-36" vertex="1">
          <mxGeometry x="176" width="30" height="30" as="geometry" />
        </mxCell>
        <mxCell id="c-pm6wDFBp0grKCKoOtM-44" value="" style="group" parent="c-pm6wDFBp0grKCKoOtM-75" vertex="1" connectable="0">
          <mxGeometry x="16" y="83" width="439" height="30" as="geometry" />
        </mxCell>
        <mxCell id="c-pm6wDFBp0grKCKoOtM-45" value="" style="group" parent="c-pm6wDFBp0grKCKoOtM-44" vertex="1" connectable="0">
          <mxGeometry x="233" width="206" height="30" as="geometry" />
        </mxCell>
        <mxCell id="c-pm6wDFBp0grKCKoOtM-46" value="" style="ellipse;whiteSpace=wrap;html=1;aspect=fixed;fillColor=none;strokeColor=#d6b656;strokeWidth=3;" parent="c-pm6wDFBp0grKCKoOtM-45" vertex="1">
          <mxGeometry width="30" height="30" as="geometry" />
        </mxCell>
        <mxCell id="c-pm6wDFBp0grKCKoOtM-47" value="" style="ellipse;whiteSpace=wrap;html=1;aspect=fixed;fillColor=none;strokeColor=#d6b656;strokeWidth=3;" parent="c-pm6wDFBp0grKCKoOtM-45" vertex="1">
          <mxGeometry x="35" width="30" height="30" as="geometry" />
        </mxCell>
        <mxCell id="c-pm6wDFBp0grKCKoOtM-48" value="" style="ellipse;whiteSpace=wrap;html=1;aspect=fixed;fillColor=none;strokeColor=#d6b656;strokeWidth=3;" parent="c-pm6wDFBp0grKCKoOtM-45" vertex="1">
          <mxGeometry x="70" width="30" height="30" as="geometry" />
        </mxCell>
        <mxCell id="c-pm6wDFBp0grKCKoOtM-49" value="" style="ellipse;whiteSpace=wrap;html=1;aspect=fixed;fillColor=none;strokeColor=#d6b656;strokeWidth=3;" parent="c-pm6wDFBp0grKCKoOtM-45" vertex="1">
          <mxGeometry x="106" width="30" height="30" as="geometry" />
        </mxCell>
        <mxCell id="c-pm6wDFBp0grKCKoOtM-50" value="" style="ellipse;whiteSpace=wrap;html=1;aspect=fixed;fillColor=none;strokeColor=#d6b656;strokeWidth=3;" parent="c-pm6wDFBp0grKCKoOtM-45" vertex="1">
          <mxGeometry x="141" width="30" height="30" as="geometry" />
        </mxCell>
        <mxCell id="c-pm6wDFBp0grKCKoOtM-51" value="" style="ellipse;whiteSpace=wrap;html=1;aspect=fixed;fillColor=none;strokeColor=#d6b656;strokeWidth=3;" parent="c-pm6wDFBp0grKCKoOtM-45" vertex="1">
          <mxGeometry x="176" width="30" height="30" as="geometry" />
        </mxCell>
        <mxCell id="c-pm6wDFBp0grKCKoOtM-52" value="" style="group" parent="c-pm6wDFBp0grKCKoOtM-44" vertex="1" connectable="0">
          <mxGeometry width="206" height="30" as="geometry" />
        </mxCell>
        <mxCell id="c-pm6wDFBp0grKCKoOtM-53" value="" style="ellipse;whiteSpace=wrap;html=1;aspect=fixed;fillColor=none;strokeColor=#d6b656;strokeWidth=3;" parent="c-pm6wDFBp0grKCKoOtM-52" vertex="1">
          <mxGeometry width="30" height="30" as="geometry" />
        </mxCell>
        <mxCell id="c-pm6wDFBp0grKCKoOtM-54" value="" style="ellipse;whiteSpace=wrap;html=1;aspect=fixed;fillColor=none;strokeColor=#d6b656;strokeWidth=3;" parent="c-pm6wDFBp0grKCKoOtM-52" vertex="1">
          <mxGeometry x="35" width="30" height="30" as="geometry" />
        </mxCell>
        <mxCell id="c-pm6wDFBp0grKCKoOtM-55" value="" style="ellipse;whiteSpace=wrap;html=1;aspect=fixed;fillColor=none;strokeColor=#d6b656;strokeWidth=3;" parent="c-pm6wDFBp0grKCKoOtM-52" vertex="1">
          <mxGeometry x="70" width="30" height="30" as="geometry" />
        </mxCell>
        <mxCell id="c-pm6wDFBp0grKCKoOtM-56" value="" style="ellipse;whiteSpace=wrap;html=1;aspect=fixed;fillColor=none;strokeColor=#d6b656;strokeWidth=3;" parent="c-pm6wDFBp0grKCKoOtM-52" vertex="1">
          <mxGeometry x="106" width="30" height="30" as="geometry" />
        </mxCell>
        <mxCell id="c-pm6wDFBp0grKCKoOtM-57" value="" style="ellipse;whiteSpace=wrap;html=1;aspect=fixed;fillColor=none;strokeColor=#d6b656;strokeWidth=3;" parent="c-pm6wDFBp0grKCKoOtM-52" vertex="1">
          <mxGeometry x="141" width="30" height="30" as="geometry" />
        </mxCell>
        <mxCell id="c-pm6wDFBp0grKCKoOtM-58" value="" style="ellipse;whiteSpace=wrap;html=1;aspect=fixed;fillColor=none;strokeColor=#d6b656;strokeWidth=3;" parent="c-pm6wDFBp0grKCKoOtM-52" vertex="1">
          <mxGeometry x="176" width="30" height="30" as="geometry" />
        </mxCell>
        <mxCell id="c-pm6wDFBp0grKCKoOtM-59" value="" style="group" parent="c-pm6wDFBp0grKCKoOtM-75" vertex="1" connectable="0">
          <mxGeometry x="16" width="439" height="30" as="geometry" />
        </mxCell>
        <mxCell id="c-pm6wDFBp0grKCKoOtM-60" value="" style="group;movable=1;resizable=1;rotatable=1;deletable=1;editable=1;locked=0;connectable=1;" parent="c-pm6wDFBp0grKCKoOtM-59" vertex="1" connectable="0">
          <mxGeometry x="233" width="206" height="30" as="geometry" />
        </mxCell>
        <mxCell id="c-pm6wDFBp0grKCKoOtM-61" value="" style="ellipse;whiteSpace=wrap;html=1;aspect=fixed;fillColor=none;strokeColor=#d6b656;strokeWidth=3;" parent="c-pm6wDFBp0grKCKoOtM-60" vertex="1">
          <mxGeometry x="-2" width="30" height="30" as="geometry" />
        </mxCell>
        <mxCell id="c-pm6wDFBp0grKCKoOtM-62" value="" style="ellipse;whiteSpace=wrap;html=1;aspect=fixed;fillColor=none;strokeColor=#d6b656;strokeWidth=3;" parent="c-pm6wDFBp0grKCKoOtM-60" vertex="1">
          <mxGeometry x="33" width="30" height="30" as="geometry" />
        </mxCell>
        <mxCell id="c-pm6wDFBp0grKCKoOtM-63" value="" style="ellipse;whiteSpace=wrap;html=1;aspect=fixed;fillColor=none;strokeColor=#d6b656;strokeWidth=3;" parent="c-pm6wDFBp0grKCKoOtM-60" vertex="1">
          <mxGeometry x="68" width="30" height="30" as="geometry" />
        </mxCell>
        <mxCell id="c-pm6wDFBp0grKCKoOtM-64" value="" style="ellipse;whiteSpace=wrap;html=1;aspect=fixed;fillColor=none;strokeColor=#d6b656;strokeWidth=3;" parent="c-pm6wDFBp0grKCKoOtM-60" vertex="1">
          <mxGeometry x="103" width="30" height="30" as="geometry" />
        </mxCell>
        <mxCell id="c-pm6wDFBp0grKCKoOtM-65" value="" style="ellipse;whiteSpace=wrap;html=1;aspect=fixed;fillColor=none;strokeColor=#d6b656;strokeWidth=3;" parent="c-pm6wDFBp0grKCKoOtM-60" vertex="1">
          <mxGeometry x="138" width="30" height="30" as="geometry" />
        </mxCell>
        <mxCell id="c-pm6wDFBp0grKCKoOtM-66" value="" style="ellipse;whiteSpace=wrap;html=1;aspect=fixed;fillColor=none;strokeColor=#d6b656;strokeWidth=3;" parent="c-pm6wDFBp0grKCKoOtM-60" vertex="1">
          <mxGeometry x="172" width="30" height="30" as="geometry" />
        </mxCell>
        <mxCell id="c-pm6wDFBp0grKCKoOtM-154" value="" style="group" parent="1" vertex="1" connectable="0">
          <mxGeometry x="650" y="350" width="200" height="118.14999999999998" as="geometry" />
        </mxCell>
        <mxCell id="c-pm6wDFBp0grKCKoOtM-149" value="" style="shape=image;aspect=fixed;image=data:image/png,iVBORw0KGgoAAAANSUhEUgAAARkAAACmCAIAAABhmWxUAAAACXBIWXMAAA7EAAAOxAGVKw4bAAAgAElEQVR4nO2deZQcx33ff9V399zH3sACi93F4iAIgAIvgAQpkuIlipJJ6rIsK5aip+hIHDuO3lPip1jW80vyEkuJXyz52U+R9ERHYihRCm9LlEiRJkiAJO6DAHEssPfs7NzTd1fljwEWEIDt6Z3p2Z0Z1Oevnenu6pre+nb96le/+hXq+dg6oFAodcMsdwUolDaBaolC8QeqJQrFH6iWKBR/oFqiUPyBaolC8QeqJQrFH6iWKBR/oFqiUPyBaolC8QeqJQrFH6iWKBR/oFqiUPyBaolC8Qeu0TfoCAYkjuuNhAYTsco3W1b06JZ9Kp2xHAcACrrxbio9V9aymtboylDahogkhSVhKJnoCQcr3wwm4yFJPDY9a9g2AIznC5P5Yl43ZkvlpakSatz6pVXxyPtW9A7EYzLPhWXJ5UzTdlKl8lxZ3Ts+NZrJaZbVoCpR2oChZHxdZ3JVPBaVxUi1dpVVtZli6dB06uj0bOXd3TgaoqW4In9ww9pNvV3nPxNAFw4FTZnFLAA4rFPitQvHYf6MAxPTP957iBBCfK+WZ9auGPrU3Y99/sHPLF8VWozXj+z+2vf+8uTE6YbehUHo/UOr71s/fP7zJe1KdkTB4it/56XSheMX29VYNv+zg8emCoXGNSyftSTz/K2rV96+ZlVA5AGAc1iesKItyLYo2fxVL1E5w2EcjTMN1rJZBwAwJq+eGt07MTVdKPlYN4+EldDPv/H4+v61S3/rVucL3/6TZ958sRElR2VpXWfy/UMDsYAMACxmJIfnHV5wuIB19a7JZG2DNVXesJFjcjYAEEL2jU+9dOJ0uqw2opJsaGPSr7L6IqHHNm+8aVWfwLEAELDEpBYJmrJiixxmF7qKx5zo8Iolyo7IEsZibGCgPxZd25Eczxfymu5X9TzyR/d96rGdDy/xTduDFR29P3vtaQf7bEolAvIntm66qX9FQBQAIGjKcT0UNgOyLQp4wQE/SxjR4RVbCtgSi1mTswBBTyQ03JEoGkaqAYMo37TUEw595qYtfdEwIiBgrkOLRPUgSxjmYj/sBgLEEka2haAlOwjbrK2I/HXdneey+bxuLKW998Sff5/nGu6SaUsyxezTb7ygGX6+/uKK/Mj164c6EixCsiN0lWNhU+Ewizy3K4YwkiMotmizjoNwQOQ3dndqljWeL/pYT/DLJz6YjP/hjZtjigwAYVPpKcVlS6ytKBYzSTUSMQIMQYrAf+7mG25ZtcKXSlJajqFk/I/vuGVtZxIAwmYgoYYFp8bXnODw3aV4TA+ymOFY5t6RoZv7+3ytrB8+8aGOxEc3b4gpMouZsKlEjAAint4ZC4EAokZQtsWpYIbn2Ac2DE8WiqOZXP1VrQHV0J7652eX5dbNz4ZVIzcMXd+gwuOK/PB1IzLPA0BSiwQNyWNf5ELYUDjCZqWiIsJDG0cknnvl5KgPdQWA+rUk8/yNK3tjiswQlNDCCw0EFwsiSLKF3lJiRsmKHPfpbZt/sGf/WC7vS+GLIl8ufPXvv770920JvvihzzZISyLHfmTTuu5wCBGIGaGQIftSLAIUMCXJFsZDswLHbl/d/+5MeqZY8mUQUa+N98j167eu6AGAkKnItuBHlS4i2nzUCCKCQpJ4z9o1FZcG5Vpg5+DqdV0dABA2AmFD8bdwBjNxLcwQFFWkj23dKAtX9zAvuth6Lh7uSGzu6wYAxRZjWpAh/kckhUw5ZMoAsK4rubmnq+r5lDZgdTx69/AaAJBtIWYE6xwyXAkCCJpyyFQAYEU0srW325dia2/9Ms89uH4YAHiHS6jh+m3Zq4IISmhhHrMIofvXD0s89bC1ORzD3Dm4mmEQi5mEGvZdSBUQQFwLSbYAAB++fr3C+9A11dg0EcANK3q7QkFEIGCJLK6uST4QkqIJpauP5QUAsHVNS08b+YxZKlS9NqGGp4PZkCTeM7zm2aMnaqszpSUYSsYHEjEACFgSt/D00TyIYYI9/WIkJoSilW+K42csraxn01AtxiGqB1OBLEbkgQ3Dzx45bth1zYzVqCWGQf2xCMcyDGYClly1U4qsXrti+z2IYRDDAkIAAIQQ7BCMJ958OXf6mPvloiMolqTy+rqu5BujY3MqjYJtTziGuX/9sCzwFZ9w1S5J6exdffeHGZYFhkHo/As9PryREHLmVz9XU5Pul4sOL9miyuuDyXhEllLFuiZwa7TxgoJQcTnIjuju8mcFsWfbzr5b72Z4AbHceSEBAEKI5RheWHn7fQP3/B6vBN1qSZBsC4hARJZ6IqHa6kxpCRSBBwDR4flqU0ldW25dc++jrCAilpsXEgAglmM4fvCBj628/X4hHHUpgSFIsUREUDKgrLmwjqFmatTScEei8kdED7ifuXLng8mNN7CC29RtsG9V3/a7L8rsagRMkSGMyHH90ShyPZPSugwkYlFZAoCYVuWN2bNtZ+fmmxHr5tqNrlnXs22ne7uSbYEhCAA6gwGmvnZVo5a29HUDgOBw7p1ScuMNob5VXgoM9Q1EV7uFk7LkfNjIhu4OlmqpTblreKDyh0ugHQAoHT3JjTd4KTC8ck1scL3LCRxmRYcHgKFkgmXqckTXeHElrENxDRQSw7HY4AbvZa7c+YAYjbuc0KFGAKAzFKD9UrsymIwDQNy1U2JFqWvrdu9lrthxb6DLLVxItkUA6A4H6+yXavE9rIxGLq3EQoiRuBRbXOBsbM366b2vVz3t+//+fyHUKOe4wPs843ztsKpz5d/98bdM2665hIkjT1Y9R050BTp7F1VsdM368szEQkcDpjQnFwAgGZAn6gh4raVFVkLfqyKEIostWQiGXY5yznnjeOem7RxHW3zTEZQDO667pZ4SHj/yJACwC6/QAQCG492HSVciBMOsIDqmcdWj7IUYgzXJRD1aamDuFD64aIcbpwQ5acGAEY7QGKJrAs41gCayatjl6FVhBIFpvLnRXHmIhFCED1CXN8UNIbxoe2dpaKCWyOLtZnVmQpubWbBAWMYcEJRmYfbgnsVeQjAmGDeiMpfSwPA2dXZ6sZc4rhmILPa8OHe/+w5iGmXv3bJuG1Ofb/SapayrR88et5x600g5jFu7J45DHGdRQyZbLdlawzN71aKl0+mMl9NsQ7V11WX8cyVmyW3BH0bn+6Uv/c2f2U6jXjPvfPdlSfBnFda1xtjsxJ989z9ki7Wv2vzaXTcBgI3c4uJs07ANnVeqBAlcip5Neznt4MSi3/6XUouWzAt5xjTOlBZes6Rn0sXx0diQ1ymm0tTY7KG3XU6wGQcAbAfnSvnG5TpbzmRiLY6DnXw5n3V9IbpjWLbIcw7j9s/V0tOZ4we8TzHpubmUq1mYlc+nu9Lr8OZDzeOlw1MpAJhPcHdVsG3N7Nvl8ZVglYuTb/7GrTREMlIRAE6mM5g03PalLAvj+QIA5MUqObcy7x3x3q7O/PIp93MM1gKAiVyhznZVo5Z2nTkHADbraJzpcpqllibefLnqz8a2Nf32a0Yh63YOOv87j83MOpj2He3J/3nnYOUPg3MbdNla+fSLT1rVhkC2rk28+Rv3kZLF2CZjAcB76bk621WNWjqXzRd1AwDKQpXlD2pq4uzLz+RHT9j6Vc4kjlOaOnfq+Sdyo1VWJRXEssNg03ZKhpt6KS2NZtsFzQCAvFB2d9s6pnHy6X+cO34Q21dRHbZMdXZq7NXni+Nn3O9ocBZGxHKciVwR12ff1+jHszE+ODmzY02/yhkmawmO27JEs5gf3/UrJdkd6OoTo0kxHBWC4fLMhKWVSxNnC2OnSbXshA7CBmsDwFxZPZtdnoRElCXAweTA5PTtg6s03jA4y2U0DgC2rk6++ZvSxKgU75RiyUBnLyFYm0s5upY/d1JNTztXe31fCka4zOsEkbmyNlp3u6pRS5iQ46n0DSt6ZIEv87q7lgAAW1Zpaqw0NVbb7QzW1DkTAE7MzhX0q0eCUNoAQsiJ2bltK3tlgS/xmmjzVZeZFsZOF8ZqzGNe4nWVNwDgeCpdf4bg2idSzmRy57J5ACiImu46aqoTB+GKp6VkmM/RBertzvFU+lQ6AwAab1TygDcIB+G8VAaAomG8dvps/QXWriXDtl89PQoAGOE5uWCyjfrZGblgsrZh2U/sO9ygW1CaihffPQkANoPTcqMyIjoMTiv5yizLT/cf9cXYqWuC/73ZzLOHjxNCTNbOSaUGxfjEtBAQODQ1c3rO0xwxpdVJlco/O3AUY1J1dW3NqJyucSYQODgxfcpb7EFV6g2W2X1ufO/4lIOxyukZuUiQ/3LiCFtO4xeOnbQaFutAaTbeHpt8573pmrOHu1MU1EpbHc8VXj45avo0719vXQ3beebI8VWxaDKoFAXVYXBn2S1bRQ0UHP3J2cMG29hN3RYiEY4/880fL8utm5+ueGeDSsZAdmvjN+grh0Tf9jSqkJdKObFciUd7/J0DGf9yWvmge9W0/vfuvV/ccWNAEMq8Ph3MxLVQVc+eR9J2+X+kX5vDqhTmLN0hSz5LK3D8+9ZuWeKbUuQIr3LWX8+++tXOO1cLMV8ymToIZ+RiSdCAgGpaT+w77KOQwK81F+my+t3X39o7PoUx0TgzpeQqfVS9xdrlH2TenrNVABAUTg77o09KkyMEOCV2fmbpb9O7DunTdQ7FMSIqr6eUXEnQAGA8V/jhnv3HU56ikLzj215mqmWdmst0BANdoSBmiMaZGm8AArHWDuq3pdP/mN03aV/M6spLrKk72G5s13TozNFHb/9QQ2/Rroylxn/wyx/XudUww6FgUmK48x2RRZxjeirjaJukGrN+a7w5JxeKomqxDgBM5Arf37NvpuTP3haX4ucem5VgiMl8cWU0LPO8w2CNN/JiCSMCgBgCBBGCCEEAiGCECSKYITbjEATzef0dguec8qvlMy8U3y3g3/VUIuAExig7DV0TmC3mHrjxnqAUYBeZVOAaJ52f+5tf/P2R0SopeKsiRwQx+DtDD4s4Z81sxlEjrBxgBPZCWkmMiMXaBAGBy9sVQcRmnaKopeV8QVQrbaygGW+eHf/JvsOa6zK5mmnUPuobujq2reztjV7MhSJe2PsZAWIIchAGAIKIxdiSLXaqEYYwBUd/uXRqrzaRshfY9ZmAmjPVbGND8rrjXXdcvyNCV8svhkNnjr5x9K06C+EkNtIjLZSzLcxK68WOu0PDK/koAOTFclYq8pir5O+/tF0BgMla82n9i7rx9tjk4alUQ7fwaoiWKkgclwgqW3u7dw6trlIJAjMZ/VQxu1ed0LCFXfsdQiAzWqKrjNqSxOoAYqq4GSSGHxISI1LHcF8YV5uDOT6T/u3p0cl8UbfsOkNXq9JALc0jctxgIqYI/KpYNB64uMGbjfHoXK6g6++MTyEGxVYo81ayO9gm2XF16X16lMaBEAQ7pMusu4UgmGTHVWyToWQ8JksjnclL9yMzbOfk7Jxh2yfSmeISRm8uhZY8wktspNfrVopqzlQzdPFF+8BJbLhLYlhPL1M123A7vwaaKEmIpTvlOa8PSI7wgkJ9A+1DMCl6FJJtYL3YEOdBnTSRlgDAVG3H9DQrhRCSInS6qU1Q4gIneG2KWs5s9LxIbTSXlhwLlz1bboLMBZNuCc0pLYEQWMQsvJazTLWBCzHqobm0BACmahslrw9LCvO8TC29FobhkBzhq/ruKti6o2aNpnXhNp2WAKA0q9uG1/gjJSZ4tLMpTYgY5DnR09uQYKIVrKYVEjSnlggBNWd6dHnzEiuG6ObqLYkgs0qU97jpkVGyzXKTWncVmlFLAGCWbUvzusgiEPfqAqI0D4hBgYTo0bojDlGzZjN3StC0WgKA4qzhWF4tvWifQuXUQiAESkxgvfnusEMKMzp2mltJzawlgkkx5XXSmuGQRFdktA4Mz3gMcQAAs2zbxvKsBF0UzaslALANx/v0thwVeIn69FoAxCDvIQ62idVcU7sc5mlqLQGAUbI9TswhBIE43XizBVBiAst7bXhq1sR2a+T5aHYtORYuTHtdSFyJ6WpofSh1IgY5ybPfVc0YTe67u5Rm1xIA2CbWC17jr3iZpbO3TQtikBRexMysXmwZIUFLaAkA1Kxp6Z5Gn4hBdPa2aRFklvc+M5u3mt93dymtoSXsEN3znDcvsWKI+vSakVCX5DGhkFGyjdax7iq0hpZgkdPegTj16TUXiEGRHq+L07BDmnB5UlVaRksAUJo1bG8rMgAgkBQ9rtKlLAGCwnKe325q1mwt665CK2mJEFJOe5295QRGDNA4vaaAYVEwKXqPuzOacqlfVVpJSwBgGY6W9/qglbjoMQaZ0lC8x90BAe8D42ajxbQEBLSc1xhHhCDUSRcLLjNK9PJ8dy4UZ3WPDtsmpNW0BIAdkhtTPcqJ5ZlQp1ffEcV3WIHxviLGVB3vy0CbkNbTEgA49iJnb6mlt0woEa/hQo6F1Uxr757akloCAC3ndfa2MvBtdH0oVyIGOO+dklG0vTtpm5NW1VJl9tbjyazAzO+bQFkaGA6FPMdGOhZWc603oXQZLew15mzhpv4bt2+4xeP5Wuv/t1oIQWFZwZNpfSp1+ulf/RJAbXSVGk0T5W1dFJIg/fcv/OW977srKAeWuy6UujAsI18u3vVnD2eK2eWuS120qo334E0feOS2D1EhtQEiL3ZGk3/9r77Jsy1sJUHraml198rlrgLFTyKBSDgQrn5eE9OqWqJQmo3W7lXncbAzOnuO8Ryo4tiXb/KUCCgOxjlNb0T12gyJ58KSmCqWLz/AoHg4Gg/E5r8Yy4zbztWnX+PBeERu7Y7oMtpES4Vy8cvf/VPv2fqLKUNhuJv7V/SEg5VvkoGAg3FWO78efjSTmymWT8z6vD1wi9IdCnWGApt7uyofZZ4PSWKqeH7vRt22Xz8zNlUoBhJiRyL+2E2PfHDL/ZVDB84d+uGrj1vO5bMX2CGf2f7pR7c/vGQ/YQloEy3Z2Dl0/N1Ir+K+XQICxCFmrZj8bO+WYqxIEAA+3yCKxRIAzM/pjkS5kWhkR29o38TUUwePOYTUuaVxK8IyaOeaVXcNrxF5DuDis8IG5I2Lz0pk4MHBjqDZ/5vJ0T1nD//HM/vX944MdKxGCD205YE9p976f28/e9lG6OWMMbc+s5S/ZQloEy0BAMGgZoxw94ILzkbEjm3KitsCA5WPnA55scxiBgA4wrKEAQACYDE2AWIzDmYIyzLb+vu29PW8MTp2aGpmNJNbmt+y7HQFAyNdyVtXr0wElPkvBZsDAAHzFUuaAJiMBQAEAQKI6cGPRzd/PLr5iD79rR/9xSce+sJtI9sB4C8f/brMyz/d8/P53snSHO/z7C1E+2gJAEzVKc8ZgcTlEUMS4nYEB+4LrQ0xFw+FDUW2hcr+7QxhmAsbBduMAwAOwjbjFMSyzlkcy9w+uGpzb/fZbO7Fd0/Olq4YJ7QRIsd+YGRwQ1dHMnh+voHFTEQPiJjnMAsALL6YTKPyrCp9TuUoAGyUugdw/MSrL5qaeteWewDgqw/9aVAMfP/VH9nYdixcShuktaOFrk5baQkAjJItBLlLg1n7hei/iN3Yw1++KToCJDhXGV9V2gQHrOjwAUvCiOSlUpHXIpK4qbdrfVfHd17fM54rNPRXLBeKwH/tnttFjgMAhiDZFhJamMULhi9wCxxSGGHEBNj1dqp7bUfnCpZh//V9X0oVZp/Z97xaNp0WyXe3WNrNJ44domWt+T0yRsSOz8avIiTvMATFtFBPOR4xAgDAscyXdtx086oVQbGtAvwYhDZ0d37ltpsrQgqaUlc51lGOugipOoSMPvfU3n9+Ll2cA4BvfvQ/ferWT+IygjYdeLabluDCbmgsYh4Kr/9c4qYurnYhzcM7XEwPdZWjgsNxLPORTes+sHaQZdrn6W3r7/vE1uuSQYUhKK6FElpEsgVU98IvS9dyB/afeeHnjmkAwL994MufvPMxP+rbjLRPa7iUUtoYEZMfDK+/dIBUP4olJdQw77Asw9w6sPLB9cM+Fr6MbFvZ99jmDRLPMRjFtFDECMyPHutHYjgnlyulpzF2eI7/q8/++SfufMSvwpuK9tTS2s7kHR2rHOS/XS45QlKNCA4HANtXr9za1+P7LZaYnnDwzqFVAMBiJqGFw6ZS9ZLF4ljW/peeyM6NVT5+64t/9bkH/kDg28pIhvbzPQCAyHEPbxwJB3lVM0Km15xs3pEcoUONpJQ8sPYj16/XbfvYzKzvd1kyPnvzDRFJQgTF9FDA8v9xAQBGZAZmZn/7D+XgyGfu/0MA+PoffNW0280t3m79Es+yH960rjMUAEA2a5PGjHMFhw+ZMiIg8tyOgRaOsn1447qILAGCuBYKmXLj8mI4COtGSSoeP3z6kGVbPMcHJP87wOWl3bTUEVQ2dHUAgGwLET1Q/+h5ISJGIK6HAWAomRjuSDToLg2lOxy8dWAFAIRMOdQA024ehqCwqSACul74u//7n9+bONW4ey0j7WbjvX9oQBF4AOgsRz0KiZOU2PDG+Y+OoWdOHPJyYdhQ5uQCw6Dfv2HTN/7plZrqu5zcMbi64ooMmJLHV06wd5Wc6Jz/qM5Ol6fHvFwY0YMqZxDOWhESP/nNz3z+Q//yKx/+fC2VbmLaSkv9scjmvm4ACBlKVSEhhgl0r1yx4wO8ErzsUMemG1MHd2ffO1L1jl3l2KySC4jCo5s3/OzA0ZprvvSs7Uhs6esGgIihyHZ1b2ewt7/jum3Bnv7LvldTk+lj+8vT47butsgcAQRN2eCsFdHw6ljoO09/b33/yN1bd9bzE5qNtrLx7hpeAwAsZqJGlfW2DC/03/HB/p0PXCkkABCC4b5b7l658wEpWsV4E21etHkA6AgEWmv2dnU8yjIMEAhXe1asKHVt3b7q/Q9fKSQAUDp7V95+X/+dHxRCEfdywqbCOywA3DsymCvlT02errnyzUn7aCkqSx1BBQDCprJQbEsFhuPX3PtouH+QFRdMlIMYJjowsubBjyudvS5FsYRhCQsAK2Ph7tBVZNm07BjoBwC0cBzQeRBa+/CnO6+/ieEWNGEQwwa6+kYe+SNOrjLo6i7HASAiS70RHybQm4320dKqWDQiSYgAg12XXTBM9/tuk5NdXspkeaHz+pvczwkZMhDgGKa1wiBkgQeAhFZlNV7Ptp2c4jWpxsAHHqkqp8os8OpY1GOZLUQr/ftdQAAdoYDAsQxhBOw2CJSiieiaRaReCvb299x4h8sJosMDAELoruEB78UuLx/bct7XEnSdf4sOjMQv8cpURYzEIv1DLicwBFUe182rVvBsuyXTbRMtMQwKCQIAMISR7AXHLQihoQ99ihUWEViEEBMf3hjsWXASCQFiAAFAC9l4lW6BIcjFQ8PJSmLkemYx0QmIYXtvucvFcp7/73Aso/Dttndjm2hpnsqSvoUILCwJFxiOdx81JdQwAHCtY+PxHAsAMd1t0MLJAcmbJXwZ0dVrXY4ighCNE29mOIbpDAWg2kg6NrihltIRYl1fz5IjwIUG2hKICzsS5kEIMTUlrOvaut3lKEsYaNN9R9pESwLLDibjVU9blHX3O3jc1I4C4GLjVUAAHcHA9b21dHrNTJtoiUJZdqiWKMuAZlrpcssn47+MNtGSallvnBkDAOI6sJ1867e1lE4ItqovEMC4ZcbU2EN+MoIxtmvZpe/U80+4FQtAAEqmOZkv1lB4M9MmWprHZNz+/Y6u1VCmY5mFMbfQ5qxUAgCjppa3LOiWDQCW67Oy1FJ5ZryGws2SW2IZh3Hc33etS7tpyR3HNE4+9+PFXmXkM9pcyuWEEl+LRJcRjDEAFAU3K8sxdDU1udgMm6kDu92DXNuYNtGSg8lkoehgbDNOUXBr2XomnR894b1kPZ+pYrRceMu+Mepp9UEz8MzREwBAEGDXZfypg3tKk2e9F2sW8/mz78HC8rMZpyLgubKW19stdXubaAkARjO5gm4QIO5pHgh2Ugd2m8W8lzLNYm5qT5UhVkFQAYGD8em5ltmK69jMrGk7ADCrVHkOk7tf9i6nqXde07NVMrBX/jst9N7xTvtoKafphu0AgpKoOoybnPTc3Knnf5I7/a57gZZannjj11VbkslaADBdLLWWY8rGGABUznAfvZjF/Piul0pT59xLU9PTx3/xw8LZk+6npZRcJcFRS2fIWIj20ZJh26fnMgBgI+w+qgYAW9cm3nhpZt+uq75HbV2d3vv6u0/+Q2mqyuvTYC2dMwFgplDKqK00avrJ3kOEEEBQcB01AYBVLp755VPpY/uNQvZK+80oZDPvHR5/7Z/MfJVu2WYci7UBYHSuPdOyt9W62heOndw+0E8QyUjF3lKVZXzYtmcPvZU7c0KMxORktxAKAwCx7cLYaUfX9Jyn3WJKgmYzGABeOTlad/WXlJyuz5W1ZFAp83rAkqqsYgKY2vNKJhrnlVB08HyUPXGc4vgZo5AzC1mCq6dPy0pFjAgAPHPkeP31b0LaSkuGbT/+1sHff98mg7PScj6pVVnpSQgxizmzmCuOn6nhdg7CBVEFgOliafrCZkStwnShdGQ6dcfQaoOzdNYKesh1bOQyRi6zKG/EPGVeV3kDCOw+Oz5daLeZpQrtY+NVOJFOn5idAwCdMysWRYOwGKcycLcd/O2XdzXuRo3juaMnKh6IvFTS2QZmqyNAVN7AiJRNc/e5cctDJ9aKtJuWDMs+MDlt2Y7FOCklhxszLUiAFMWyxhkEk18eP9W6U4/fef0t28Ema6eVXOOmUFPBXJnXAODI9Gz7hTvM025aIgDvjE2+9N5pQGCydl4sN6KJlAU9L6qA4Gw2f2hqxvfyl4zJfGHP2XEHY4t1ZuW8768eAmROLqicQRDsG5/66YEjXsKXWpR201KFXWfG9k9MA0BOKmWkoo+JxQlAXixXrLuTs5mfHjgy11Ku8Cv51YnTu89OAEBZ0Ofkgr8tvShoZV4HgMl88Tfv1TIobVB9iX0AAAP0SURBVCHaU0uGbT99+N3jqTQAFAV1OujP1qgY4dlALisVAcB28JMHjqRaf4/Asmk+f+z8wKkkaJOhdMXLXz/TwUxWLjoMNiz78bcPpFrNPbNY2lNLAFAyzMffPnBmLksQmKw9Fk6ZdaQXx4iYrDWr5Mu8ThCczeT+56tvZFtqQskF03b+4sWXd4+OOxibrD0nFzTOqKczrwxWNc7EiGTK6n/59Wvpstq2tt0F2sonfhmG7Xzvzb0PrB/e0tcdEIXpQEa2xaApeUlTeikqr5d4XeONynDiRCr9i0PH0+WW75Euxcb4xXdP2hjvWNNvsvZ0MCtbQsQILPZZmYxdEjWV0y3WAQL7J6ZeOnG6bLbblhZXpZ21BACm4zx75PhsufyR69Y7DC4Jmsrros0HTClkVc9Gr7OmxpvzDgxCyEsnTr9yctRynMbXfakpm+ZzR0+8NTbxldtu5lhG402Ds0KmLNh8wJKq5pRWeV3jzJKgzTsw3hmf/NmBo3abesCvpM21BAAOIbvOjB2YmL5zaGBDd0dHMKDxpsabGVIMmJJsixf2wEMsQRXDhiDQWTMvXex5VNM6l829eursybQ/Q6/mxMZ4Ml/89m933Tk0sLYjEZGlvKiCCLOQD5hSwJIqz6qiq3mDWeUNnTPNC7N5Bc04k8m+cnJ0It+eO2QvRPtrqULZtF449t7bY5P3rxvqCgWTQQUjUhS1onh+zIMIYgmyrwiKtR18eGrmrbHJM3PZa+QVO1tSn9x/pD8W2dTTdWN/X2XfkLKgl4XzqyQYgoAAZi4fAemW/dbYxKHJmfFc4Rp5VpdyrWgJADAhM8XSD9/aDwABQbh7eOC2wVXzRwki9u/OrpQN86cHjhydnm37QfNVOZfNn8vmnzt6IqHIH9963ep4bN7Kw4hcZvGdnJ176tCxdKm1pwfqpE20JPHC7+14aLFXvTEHIseuvWInsoJunM3mAYS1gzevHfSpiq3MFMBUBiKy2B+9PMTxXC6f1wxgem7fvLite4d61/hXwaagTbQUUkJ/+2/+23LXgnJN07bzSxTKEtOqWtKMdssWcI1jO7bttEwip6vSqlrad/JgyttyPUpLsOvInqLW2kFGqOdji9iMqKl4bOeH/91Hv7zctaD4wIt7fv2NH/3X5a5FvbSwliiUpqJVbTwKpdmgWqJQ/IFqiULxB6olCsUfqJYoFH+gWqJQ/IFqiULxB6olCsUfqJYoFH+gWqJQ/IFqiULxB6olCsUfqJYoFH+gWqJQ/IFqiULxB6olCsUfqJYoFH+gWqJQ/IFqiULxB6olCsUfqJYoFH+gWqJQ/IFqiULxB6olCsUfqJYoFH+gWqJQ/OH/A7q/0Gf7CZ8IAAAAAElFTkSuQmCC;" parent="c-pm6wDFBp0grKCKoOtM-154" vertex="1">
          <mxGeometry width="200" height="118.15" as="geometry" />
        </mxCell>
        <mxCell id="c-pm6wDFBp0grKCKoOtM-152" value="" style="ellipse;whiteSpace=wrap;html=1;aspect=fixed;fillColor=none;strokeColor=#d6b656;strokeWidth=3;" parent="c-pm6wDFBp0grKCKoOtM-154" vertex="1">
          <mxGeometry x="47" y="64.5" width="30" height="30" as="geometry" />
        </mxCell>
        <mxCell id="c-pm6wDFBp0grKCKoOtM-153" value="" style="ellipse;whiteSpace=wrap;html=1;aspect=fixed;fillColor=none;strokeColor=#d6b656;strokeWidth=3;" parent="c-pm6wDFBp0grKCKoOtM-154" vertex="1">
          <mxGeometry x="121" y="64.5" width="30" height="30" as="geometry" />
        </mxCell>
        <mxCell id="c-pm6wDFBp0grKCKoOtM-148" style="edgeStyle=orthogonalEdgeStyle;shape=connector;rounded=1;orthogonalLoop=1;jettySize=auto;html=1;entryX=0.5;entryY=1;entryDx=0;entryDy=0;strokeColor=#000000;strokeWidth=10;align=center;verticalAlign=middle;fontFamily=Helvetica;fontSize=11;fontColor=default;labelBackgroundColor=default;startFill=0;endArrow=none;fillColor=#f8cecc;curved=0;exitX=0;exitY=0.5;exitDx=0;exitDy=0;" parent="1" source="c-pm6wDFBp0grKCKoOtM-152" target="c-pm6wDFBp0grKCKoOtM-51" edge="1">
          <mxGeometry relative="1" as="geometry">
            <Array as="points">
              <mxPoint x="600" y="430" />
              <mxPoint x="600" y="269" />
              <mxPoint x="472" y="269" />
            </Array>
          </mxGeometry>
        </mxCell>
        <mxCell id="c-pm6wDFBp0grKCKoOtM-156" value="&lt;font style=&quot;font-size: 20px;&quot;&gt;1 kOhm&lt;/font&gt;" style="text;html=1;align=center;verticalAlign=middle;resizable=0;points=[];autosize=1;strokeColor=none;fillColor=none;fontFamily=Helvetica;fontSize=11;fontColor=default;labelBackgroundColor=default;" parent="1" vertex="1">
          <mxGeometry x="705" y="310" width="90" height="40" as="geometry" />
        </mxCell>
        <mxCell id="c-pm6wDFBp0grKCKoOtM-147" style="edgeStyle=orthogonalEdgeStyle;rounded=1;orthogonalLoop=1;jettySize=auto;html=1;fillColor=#f8cecc;strokeColor=#b85450;strokeWidth=10;endArrow=none;startFill=0;entryX=0.5;entryY=1;entryDx=0;entryDy=0;curved=0;" parent="1" source="c-pm6wDFBp0grKCKoOtM-66" target="c-pm6wDFBp0grKCKoOtM-82" edge="1">
          <mxGeometry relative="1" as="geometry">
            <Array as="points">
              <mxPoint x="470" y="189" />
              <mxPoint x="616" y="189" />
              <mxPoint x="616" y="260" />
              <mxPoint x="710" y="260" />
              <mxPoint x="710" y="204" />
            </Array>
          </mxGeometry>
        </mxCell>
        <mxCell id="c-pm6wDFBp0grKCKoOtM-155" style="edgeStyle=orthogonalEdgeStyle;shape=connector;rounded=1;orthogonalLoop=1;jettySize=auto;html=1;entryX=0.5;entryY=1;entryDx=0;entryDy=0;strokeColor=#000000;strokeWidth=10;align=center;verticalAlign=middle;fontFamily=Helvetica;fontSize=11;fontColor=default;labelBackgroundColor=default;startFill=0;endArrow=none;fillColor=#f8cecc;curved=0;" parent="1" source="c-pm6wDFBp0grKCKoOtM-153" target="c-pm6wDFBp0grKCKoOtM-84" edge="1">
          <mxGeometry relative="1" as="geometry">
            <Array as="points">
              <mxPoint x="910" y="430" />
              <mxPoint x="910" y="260" />
              <mxPoint x="795" y="260" />
            </Array>
          </mxGeometry>
        </mxCell>
        <mxCell id="c-pm6wDFBp0grKCKoOtM-145" value="" style="group" parent="1" vertex="1" connectable="0">
          <mxGeometry x="665" y="50" width="170" height="171" as="geometry" />
        </mxCell>
        <mxCell id="c-pm6wDFBp0grKCKoOtM-79" value="" style="shape=image;aspect=fixed;image=data:image/png,iVBORw0KGgoAAAANSUhEUgAAAKoAAACrCAIAAAB5SJBwAAAACXBIWXMAAA7EAAAOxAGVKw4bAAAgAElEQVR4nO2dd5yc1XnvT3nr9Jntva+6tKoIIQSIbooNBoE/Lkns2Mk14RLHwb7xda597fgmvraTOBCwwd0YB/ClF4EpQgX1XnYlba+zszu9vPWcc/8YkFe7M7PLtnmF9P1rPztvOe/7O+8pz3me58Bn3n2+N9APLnFRwj397gs7T+zOdzEukR9QvgtwiXxySf6LmkvyX9Rckv+i5pL8FzWX5L+ouST/Rc0l+S9quHwXIJ+U+kqW1y/hceaXYJjm7lP74kpinks1n1ws8suCVF5Q6rK7GsrrBF6444pbbKIsCaLb7oYQZjyFMRqMhU1imsQ8cObImf52fyjQE+gbDPp1Q5/n8s8RH3H5EUIt9UuvX33N6uaW2pJql93JYQ4CIAlSNtXHUl5Qlv5jRcMyk5iU0qSaPDvQsbft4Gt73zzVe3qOiz/nwLu/8xcfMZs/QohDXJmvpKVx2Rdu/syCqian7Bh3DGWUMcYYMwkBgGW/FMYIAQAhhOj86pJUUnvbDjz59h+Od58KhEcNU6cs63Usy0fq68cI+5yeyxatuWntddevutppO091wzQMYkYSUcM02vrOhuPhnkD/eyf3Gdlb8oXVzaubWziMS7xFTRUNdskui5LACRBCu2zbvHLT5pWbTGLuOrn356890dp7Zijop4zO/YPOGh+Rrx9jXFlYvqCy6c6Nt16/+hpZlM79RCgJREaHw4H2ga7B4NCO47uDsVD/6FBiymM6CKHb7mqqaFhWt6ipoqGutKa+rNbn8tpEeexh+08f+vlrT5zobh2JjF4oA8YLXv608OsXrblx9eZVTSuKvUXnfuoc6j7Z09Yz3Hemr72190z/6FAsFWMza6JlUS5welc2Lq8rq6koLFu7YGV9WZ3A8elfCSXbjuw82nny7SPbj3acIJTM6NnmngtbfrtkX7tg5aevvfuyhWsK3b70Pwklrb1ndhzfvevE3lO9p/2h4Tm6uyxKqxpXrFu4+rbLb2quaEDofSOKqqsHzx791etP7ji+O5aKz9HdZ4ULWP7akurPXn/P5pZNDeV1HMYAAFVXd5/a//Le1092t3X7e+OpBMs+rJst7JKtsaJhZcPSOzfetrJpOUYYAGAQcyg4tPvUgV+9/rsT3W2WbQbwkmtWXnDOXhzmVjWt+Nq9D9x++c2lvmKMEADgdN/ZHzz90M+3/m7/6UNDQb82X1NzwzSGw4HW3jPbT7zXOdhdVVRR6C7ACLnt7ubKhquWb+A5/nD7sRl2OnPEhSe/TZT/6S+++c1P//3CqiaB4yGAAICfvPSLBx/71oEzR6LJGKV5GHsTSqLJ2PGuU8+/96qiKxuWXAYAwAh7HJ6NS9fXFFed7jsbTkTnv2C5uZDkhxB6HO7//Wf/495r7hR5AUKoGVrPcN/HvrHlxd1bFU2Zh6Y+NwwwVVf3tB54ec/r5QWlVcWVGGEE0eLahVetuOLAmUOheNhS5oELRn4Ocy0Ny/75C//r5suuRxARSgLhkae2Pfe1x789GBzKd+nGE4yFjnedkgSpxFtkE2UIocfubqlf6g8HApFR3bSKzfiCkX/T8g0//KvvtjQsgxASSs/0d/zHcz/9zZv/FYqH8120zITjkV0n9gwFh112Z1VxJUKoxFe8urklkox1DnUbppHvAgJwQcgvCeKVyzZ8/d4HmisbIYQmMd85suMXW594dd+bKTWV79LlwiRmW+/Zk91ttSXVtaXVAAC33VVXUq3oape/xwrrRlaXX+SF61Zd9eCW+xfXLEzPqf6w48UfPfPQwbNH5m1sP0NGo6Hj3a3dQz2rm1tEXihw+RZVNyua2tp72iR5nhBaWn6M8OWL137jU3+3oKo5rf2zO1763pP/2hvoJ/kY3k+bYCx0qud0OBld0bDMJsouu3NJ3SII4b62Q/ktmHXlhxCubFr+6AM/qi6pSs/sf/vHp7735A9HosF8F206mMQ8M9ARSURXNa6QRdkh2dc0t+w4vnvujJJTwbrOXjZR/s3XHy3xFiMIKaNPbXv2h888FIxZdKA3FVJq6ql3n/vF679TdRUAIIvyc9/+7bn1grxgUfm9Ts8P/uq7HrsbAKDo6nM7X/7xsz+9QL/7sWi69siLP3v81d8k1RQAQOCFV7/3jNfhyVd5rNj4Cxz/9Xse+NQ1n0yP8986/O4Pnn6oy9+T73LNDiYho9FQbWl1TXElQsgh2zHCO/K07GLFr39l04qPXXZ92hmrN9D/1LZnewJ9+S7UbNLWd+aHTz8cTcYAALIoL61bNBXPs7nAcvL7XN4/v+FTxZ4iAEBCST638+Xtx3aTfE+QZp2TPa1WmLhaS35ZlD9/02c2t2ziMEcpffrd555462nN0PJdro8s1pJ/88pNd115e9pHbyg0/PALPxsOj+S7UB9lLCR/VVHFrZfdUFlYDgBIKql//NX38jsnvhiwivwIopWNy69afkXaZerZXS9t3f9Wvgv10ccq8pcVlNx2+Y1uhwsAEEvFH33pl/ku0UWBJeRHEDWW11+78qq0685Lu7cGYxe8heeCwBLy2yT5lstukAQJAHC4/dh/vfP/ktZeyf3IYAn5KwrKbl1/Y/rvrfvfOtV7Ji/+ehchlpB/y9V3uO0uAMCxzpN72w6mV0QuMQ/kX36HbP/sdVvSVs/3Tu073nnSmj7RH0nyL/+yusUO2QEASKqp4VDACqbQi4f8R/j+9G//DQDAANh5Ys/zu17JGCFrFwSZ52Z9WcQgNKHp5nTHGRBCAWMBI4xQ2iGFUMoY0AnRCbkg/JHyLL9NlF02JwDAMPS+kYHRWCjjYVc11mxqqEWzrX93KPL88dbB6IcOwxMwLnbaPbJc43WXu5xOSfTIEgAgqqgmZX2RaG846o/HQylF0Q0r92R5lv/GNZvTTnz+cODdo7tyx8KJJs8xPCv3ZYAp3HR6GR7jUqejuaigpbKsxGlHDGKKEEMIQMCg2yYDyKrcrnXVFcFUqm14tHV4pDsUmXYDM9fkWf4b1mxOW3n94cCO4+/lPtip22RTSJuGZgiBVLNnbmlyYBP4FeWlKyvLqjwuAXCyLoiE5yiHKEQAQQAooAwCHZk6NiSZL6q3NxUVHBkY2tnVq5tWXLPOs/w1JVXpMT9jbNLOElPE0dn5+qdRhZyiuKGuam11hVuUHIZk1yWechnLIwGBQGogMyVo2IE8jVKJy/FGW0cwaTlbVp7ld8h2AIBJzEFrp0Wx8fzG+urLa6vsWPAoDrspYZpr0oQZwkQQVE4kPJISK8pK3ZL0m31HUxab1+Rz4vf3d99f7isFAMRS8V+/8XvLTvcxgisqSjc11DiRWKC4nLqcW/tzIIbsulSa8PIA13o9n1yxiMf5n2mPJZ+lsYlyuuNnjCmakseS5KbC7b5tyQIBcG7NbjOkDzv44CguTxRwEDUV+TbW1+TLrS8jeZMfQlhbUiXwAgBAM/STPW0zvybieE62czY7FmWIZufReIxuXdLEI+wwZIchT5QOIoRFibPZOZsdC2LGi3AUF6XcNk5YUlpc6XbNSsFmhXz2/ZIoITg7IkGIbMXltuIyyVMAETJVVQkOJ4cH9HhkhldeXFJU6/UKhHPoMmTnqw8hL9nspRW24gpOkgEAeiKW9PenRv1EG79sIZmizZAq3M6FJYWDsbhF+rn8W/0AAB2DXTPp+Hm7w127wNe0VHR7z/2TMRrv6wqfPREb6AbTvTiH0Mb6GgigzRQFMv5d2QpLfE1LXdUNeEyGN2/TknD7qWjXaSUYGHswYtChyylerfV5iuy2gDVmAXmT3213ifz7TeUftr8wbfkhQkVL1/ialkF83hwMQuSqbhBdXmIaSf8041gK7LYSpwMDaDekcT/xDmfZ2qtshaXg/L6cE+WChSt42T58+D09ETvvFIolU6j2uoudDovIn7e+3+NwSx/0lL0j0w8z8jYu8dQtGKf9OUS3t2jpat7unN7Fq71uDiGOcPz5nz5EqHTVRltRGcg0jkOYc1bWuWubx40/MEWyKYqY89okbpaGJjMkb4XAEM18DIxFyV3ThIXxn+afgNBWWOaqbpje9YudDgThxGZf8hW7qxtzFUwQnVV10pgckwAACCBiEEAgczy+yOWfFWxFpYLTlfETPAcSBFtRWbbmITeFdhuEYKJpz+YrnvSCsrdI8haM/y8DkEGbwHPIEtO/C1t+zIsQTSIDhAgLkx/2oXBUVE/vRMwQZrDa63aIwiyWZ9pc2PJT02CTmYoZpURT2azm1UwFJs8llk4YP/6fkFHIwilVs8YK0IUtvxIMGMl4joT8AABq6sqon00rSDSuaowBgsafqwQDbLIFKj0eNc4f+QMAKGQUskAioRrmNMoz61zY8hupRKy3g+jZ11EY0yKh2ED39K7fF4lSxnQ8XiolOBzv68xxItG1eH+XEjovQJEBRiEDDCQ03bCGB0De5E+oqXO57Uq9JdO+TqSzLTGYNfMDNfWRkwf12DSzqQ5G44wxAxHz/AaAGLp/wrT+TzCmBIcjna30/PU9gqjK6QYlcU2ziCtY3uQPxULKB5bRL93yZ9OeBJqqMnRgR/D0UTBhEKBFQ30734gPdOfuHXIQSCRjmkYgTXHjg8y1aLh/x+vJ4YHx5zAW7Tk7uHebFh9f5wiiKtaHYolgyirrW3mz+pmUnFvgL/EWQwinbfgzknH/gR3x/u6ChStsRaWIE7RIMNbbHmo/aaaSMzEnG4Ts6Oi5Y9mipKDYTRGfNwNkyZHBvh1b3TWNrupGuaAYQpQa9Ue62iIdbXRC0k4GWYJXTEg6gyF/zCpJ/vNp8z8XygMBQBBRMP32kJpmvL8r3t81S0X7E/v7Bjc313tEGBcUj3r+llCMGcn46KnDo6cOT3odA5GYmAollZ5Q1CAUXeRmH8ZY93Bf2qtf4IWldYvyVZLcGIT84egphRgJXkny6vSShpuIjNgihkmODQ6f9AcmP2G+yGcdVHU13QAgiOyiLY8lyU1XMLy/Z0ABelRMKrzO4IerAQYyR+WoCo22wOiurt45KuT0yKf8e1oPJNQEAEAW5atXbLSUG8xYNNPc0dlzfCiQgGpESiR5lU65BmicHpLjCqf3RWNvn+2KqdbKU5TPvv/NQ9sC4dEid6EkiGsWrEQQEWYJW9hEIqr21plOzTSXl5cSiWrYcOiySCZPyKkjU8XGyeHA9o6egWiWiWL+yLO7R/dw7+KaBRBCCCCC0KLiA8AYG0mm3jrbFVG09bWVXomonM4TTjYF2RRzuZ/raFtf9+7+Xgt6eYO8y791/1s3rb0WQ1xeULp55VWvH8iVzydoi4U+cLeSTcGnOsd7X32AyhkRKW7CHFMJRnP9mukExqKKuqur5+xo8Iq6qlUV5QYyVU5PEc2rOoQJLQEF7ITifyN+5njPUEq1ln/3OfIs/7M7X/rXv/4njLDP6W2pX/rGwbdzTNPPmd4gS4eGZL2shnUNGRTNvkedZpK+cPTpSOyN053rqiuWlBZX2J06JmPljxN1b6rvQKp/0IwZjJjIEga+jORZfsaYpms8x9skubGy3mlzxpIZOshW/2hc1c7F5mCE3LJNglm73qiWShnapOLHVC06rbEYZSyUTG1tPbu19axN4KuLfR6nnN6jKUqUIDmvnRcdnK6Y+d5lKjP5d/V8Zd8b91x9JwDg8sVrb1t/45Nv/WHi3LorFO4K/SmVOycgV5mMcOaWnxo0PqoZyjwNJFK60R0L2bCQrTy8hOG0zc5zTP5tT9954gfpwF6HZK8oKJOyuMqPBWKIsnvLmDql5ry+bVPLdUeIAbSGb89E8i9/OB55cfdrAACBFzYsuaypchK/PAiBIOMckTbEZJTMq/zUpDnuCCHkbflvZTOSf/kBAI+8+PN0A7CiYcnKxmWTbHABIS9nfZuMMmpSRudXfsqoSXO075LzkvzZ6QsMvLzndQCAyIvXrbqmzJdr+R9CgPms3z41manP+0ibAVOjNHud44TZ9DScRSwhf0JNPr/rlfSUb9PyDS2Ny7jsfrSYRzm6UmIymo90KoZGcjQ5EAHEWeJVj8MSZaKUdvl7j3edAgDwmPvKnV8uchdmO1hyZe8aGKAmJSQP82xqTuJzas323xLyAwDO9Lc/8uLP07lcm6sab1p7XbZETryctcyUMlPP1QfPHYwyUyc5bi3YrNj+W0V+AMCxzpPbj+1KdwEPbrm/vqx24jGIgzkitylhppa3dQM9RXKYLCGe9cRks4CF5O8e7n157xv+cAAA4HG4v3r33zhlx7hjRFuu7H6Msnme8Y8ld81DCHCS5RoAC8kPANh2dOfBM0fSPoC3rr/xs9ffI4+JnQYACPbsPSgDxMg1/J5rGMlZ+SAUrDf7t5b84Xjk8Vd/3T7QxQDACH/62rvXLVh1LpkKhAALWQvMGDPU/HT8HxQA6NktzRACzFvrbQOryQ8AOHT22Ncf/1YkHgEAVBdXfvWu+y5btDr9ExZwjikfo8BU8+wwoCfHO/iOBWF4bl3AJspWGAtYTn5Cyb7Th/a0HgAAYISX1i26puXKtB1QsGdZVAEApDv++bX1ToTkNDkgDHkZAwAQQt//y28XugsAAJTSlJo3t39LbOLqc3rv+8RffnLjbYNBfygeppS+dejddQtWVxSV8Zhf1bRCEsQT3a3IznLY+7S4qafyHDjHGBBsHOKyFBJCShgm3Odv+syWq++wS3YAQOdQz/ef+nH/yIRwkXnBEvJ//d6/ve/2v1xWv2RhdfPJnrbhcMAgxnO7Xrlr0+1uuwsjtLJhmUnN7kiXRrIuz6dCeh6H/edgDIhZxqcQAgGJd6y9/b7bv1jkKQQAqIb61//+lXRTlxcsIf9vvvYoxhgAUFFYdvD0kVO9pwEADLBQLFxXWlPo8mGMF1c3IwzPDJ3VzAw1gDGQCuuWyAvJgOzObJd0SI4bl1/76avuqS+rAQBEk7Hnd77yy9efnN/ynYflpiLnoJS+tGerqqt/f/f9C6oa3Xb3F67+c5ETH3nrsYnbupoayXvHn4YSRgmb6PohcMJNy6//0uYvlLpLAACarj32yq8fefFn+Sjjn7Cu/AAA3dC3Hd0p8MJ9H//ioqomHvOf2rBFEqRH33wskjovgFJPWiJcHgAAGDNSRDzfwg8h/NTlW+5Zf1da+3gq/vhrv/351ifyvnWJpeUHACTV1Nb9b6mm+rUtDzRXNEi8dOfaTzgkx0/eerw/NHDOyDpvrl2TwhjQFXOs/E7J+eXrvnTLyps9NjcAIJ6K//i5nz7x5tOxVP4DPS038ZuIoik72nb9bNsvRmNBAIDICTctv+Hbd/7PFdXL0oFBlDJiWMibduyKs0t2fuPjD9512R1p7TVT/827v//NO7+3gvZg/uVHEE1k7AEQwonHMES3Hv/jPzz1zXAyCgDgMbe2fs1PP//wvevvFnlRTxBLDPo+gFJGDIYgunrRpifv+/UtLTeLnMgACyZCP3nzsV/s/JXJjAxvITezlP12HPPa+Be6fZ+97t5Ct2/c/8fWgDs23rqsfslYz1jVUPf37T82eHxf58HvvfAvn7/qc40ljQLHy4L8wI33NZc1/+SFX3bEeqyz+x8HOS/v+9x1Wz535WckXgIAGMQYDA/98JV/33nmPZ/D9/Ebb69yV32oawZj4ed3vdI93Du7G1zCu7/zFztP7J7FK2YDQfQvX/zWZ67dMo1z24c7/s8L//dQ9xHKaHVh1Zev/asNzevTzSkAoMvf88SbTz3/3muB8Eju3YDmAa/Ts7nlyjs23rpp2QYOcwAAyuirR7Y+f/ClfR0HCh0FD9z0Nx9ffes0rqzo6povXxOecZLqsczf1w8hvPWyG6d3bl1RbVVB5ZHeY5TQvmD/j19/uGuk62MtN1X6KnjM15XW/ONnvraoesEfD2472dPW7e/Ny8YgJd6iRdULrlx2+b3X3Ol1eAAABjH7Q/0HOg89/MdHw8kIAABjzONpvnNZkCR+ci/4D8X8yU8Zfej5x75+7wMC9+EyGhJKDnUfPutvT7d7jLGhiP/3u59uH+7cvPiqKxduTDcDd2y89fLF61p7z7xzdMcbB94eDPrnbXsQl825duGqWy+7YU3zyuriSp7jAQAxJbbz9O7Xj/1xd/te1bBKxzSO+ZOfMfbbN58ilKRt3WP56l33nev+X9v35snu1nO6IQyhyI4NHDvtPzv2m44p8e1tO04NtB1oO3rX5Z9YVrcYI1xRWFZRWLaqafm1LZu2Hnj77cPvDgb9c/pQXof7tstvvmrFFQsqG6uKK9NfNmPMHx5+Zu9zrx3f6o8O570/ysG8Dv0SSvK3f3xqYlqbr3zyv6EP5iDbju58btfL5z5cTsT2IoEAc+JLNIg5GBp8quPZN/Zsu3rFxge33O9zegEAPqf36hUbWxqXfemWz+1vO7zt6M5D7UcHRifPwzl16spqltUuvnHN5sW1C4vdhW6H69zIXNHUx1799fZjOzsjnUQab9WJK/H+0IBqaNNoxp948+lgPDz5cR+G+Rv65aD3d8c57v2K+JVHvvH09ufPyS/I2FkqZUv8YShmYlQnBsUYF7sLH9xy/yevvJ0fEyVCKNENYyg03NZ3evvR9/a0Hezy9xgT0m5NBQRheWHZ4uoFN6699qrlGwpcPg6fl5jbNM3HX/31vz37qGboJjEFO7YXiJmsvzyPBQBApD/1odaoNFPXZ9tKaGmrX9pDJkfSF0N9P7iOEDIUGv67n3zzR8/8550bb/vExluqiytFXuAwJ4u4vqymvqzmY+tuiCSi3cO9p/vaR2Oh/pH+1/a9aY5J9mqYBoCAx3+qPRzmPnXNnS67q8hTWFdSXVZQWl5QOrYAhBLN0DsGu/a0Hvjl67/rGe47V3FNjZoamejgpZuGbhoAgISSImaerVXWlh9D0ZnTq5+MT5s8EBx66IXHntv18urmlo1L169buLrQ7XPKjvQczONwtziWtTQsSx/8z1/41thz97UdxBivbmqZtGCMsaSa8oeH2we6th/b9fLeN0ajwXHH5A78AwAINqzELsmfHQhhDv84YtJstt7+0cH+0cEX3nu1qaJ+07INzVWNxZ7CYk9RZVFFgdObLafeuoWrc5cnkowOh0d6h/sSSrJjsOutI9t7/L2RTAkJAACMAUYYYFl3DJVcvBKbTjc0i1hafoRhDlsn0SmdzNR/dqDz7EAnAMAh2+vLapfWLqosKi/zldaVVkOISrxF1cWVOU6PK4nTfWcJpbFkrK3vrD8c6BjsOtpxIppF8nGYGqWEZgvvyuG2Om9YQv6Hnn/sM9dt8bm8O0/sOdHd+n57DnO6db+/sj7VWySU5LHOk8c6TwIAfE5vRVE5ArDA5S07vy8fR1JNdfl7KKUJJdnlz5o4OhuGRojJUPaHwDzK72KVJeT/ycu/PNJ5vKqw4nDH8dP9Z9P/hDm9+hllxMiwX8JUCMXDodmeQWXk/cY/O7KbT4zmM9OfJeSPK4m3D+/gMDYJGTu/z5YuBQBAzHzGc00RxgDRKSfhbHMX0c7lV/78dz9p0jOosdoL9lzxXNS01hp/NrSkyXIk/sh30heryD8RKfeUb7JplUUwdZqrh4Ig7fmfL6wrPydOFsh9QcBY7kwzco50BXOPReXHPMxh7GOU5T2ea4owBvRUrqLmd/pnUflFO58jdxcjjFggomOK6MlJcjrmGOHONRaVP1cuDAZMY75zd80EYuQqK8Iwt3ljTpmTG69dsOqKJevKc1pUciM4uBwBsIZGyIXS9wMAABAcfI4xPjGoMYO+rG9kYPvx3Uc7Tkzj3NmXf3HNgie/8RiP+RltV5O7Obxgvvwx5ApOntGFCaX3XH3nP/z8uzuOv/dhz519+R/c8t8n+vNcYu7gMCgvKLt+1dXTkN+iff8l5oe5HXQMhwNd/iltXoQhlAVewFhEnA0JBiMMgCTVTUYUel78nqleCOaeCSA8fvHajngEoR2JGEAAQYrqBiEGoUlDZwxwCJcXlqXHT51D3SPR4ETz0aLqZrfdNZNSzaH8lNGdJ/b88JmHc90eIY8slbucxU67R5ZsvFDAHKXQrVKTAhY0UyozBvSo30wEzITCDEZZZCBlqZieKcJL2FkkAQBkxBdzjgreXSm4OQALOTsHsYFMPwonTV0xzFBKCSSSwZS6rHHV52/+bG1JVf/I4H88/9PB0aFxz/3Qfd9f3dwyky2w5vbrj6XiPcN92X4tdzuXV5UXO+wlTptHFgFgmBpuzUR60g4gAMAJeAa4CoJHiDBMhINK/7HwUNhvxU1xJgXzqIxzLZZKlkm+YuQsI05Z4wEAQDMAMBA2PSIVeNPNsVJZKpFYIEEjwyee3fb0Xdds2bBkXSQZ/cYvvhuKnbdQqeozXS7Kz4yz0G5bV13ZVOQrdTkwQpIpiCovER4xxBMOjhklQwCdWHRisVb0NYgF9ZLnTaW9LzLNLZnzSJ3be7t3yQKh2MvJcMI0gCecV3U4dZlCpnC6KPKFdlk1SSrRdbr1He/qW2+57AaXzXn/w18PxkKzWKo8yF/hdt2yuLnG5+YRtpuiO2nnGAcZRFn2ZUqDACzmHEtLikq8tnfau/b1DsxbFMcMgQBc2VB7dX1tBfD6tMy7VUIAOIrTO4JJpkAhNRCJiglR1EcHj52SxJaWWzct3/DoAz/68n98dTQ6azVgXkf+EIAqr/velUsbC312JpYlfUVJr0gETFFu7c8hM8Fnk29Z3Hxdcz2HL4BpC0bwjuWLP7aoySmJU+ykEYMcxbIplCS9pUkvZ7D29t2HD78IAduwZN3D9/+wwDU+RnbazOsbrPR6/nrD2lKn02aKRYpHMoUPO2gpSnl8mtPOCVfW12xurJN4S7irZEPmuU8sW7SmqpwDyK3Zver4HLW5gQDKpuhLuSSD62jfs2fPU6ahXrFk3fe/+O2qoopZ2fR0/l5fmcu5pWWJiLDDkD2qA9Np1jyXaoMMIjF5eW1VUnkMS14AAAr1SURBVDcO9A1qpmUyu4xB4rhNDbUrykslyHsVh8OQJz8n43WIUKR4gnKss3MvhHDZ8ptuWH2Nqmv/+of/nLm3yDzJ75GlO5cvKnXYZVOcifYAAAigQ5cBYExkV9RVB1PKmcAotdg4gENoUWnRysoyOxa86vS1T4MpLlBcFMa6uw5SBhYu2nz75TcxRnNvezKlcs7w/KmAINxQV13pcQlU8Kj2mWj//gUZtOuyiWixnW2orRqIROOatbbJLHba19dUFso2l2azGdLML4gp9inOURjt7j40mkwtX3rdxzd8DMFcIVBTYT76/hqfZ2lpMYbIp2TY7HQsWBBEl0f0FIieApDzwTBDTs0mmkJTka/G55ntIs8IDqFan6fa67HpkkOXJ5nR8EL6ebE4SS0RCOdR7ZToXd2Hntv2VN/IwIwW1dJFneH5k4IRWl1Z7rVJTl2WzKyR/Zwke+oXOStqOJsj/baIocf7u8IdrUYycxYknmLZFDTOuGlh05mRoG5axf+nwC5fWV8jACybQtbdnSG0FZUWNC8XPT6UTgJCiBYLRTpaE4O92ea0kinYDckUUrvb9z8Sjf3d3X9T5pv+qjqYB/kL7HKxw8Yh7NWyjnvtJRWVV9zAyXaE8diPXvIVuaobhw+/Fx/ozniiw5BTvFbssFd73O2js2kPmTYQwmKno8Bmk3VRNjNHcSOeL1mx3tOwCAvS2M1JJF+hs7I+fOaE/+DOjFsDIYZcuk2xayV2cevht+/YeHupt2Qm7f/cNv4QgEUlRWVup2hykGW+l+j21N14l+B0I44b1+AjzMkFxaWrNzrLazI+JKZIIBwEcF1Nrlit+QRDuLKiDALIM4wzPTIWxPL1mwsWr+IkGxyf1QxhXihcsqr2uo/DLDlgMEMC5So9LrfIzzyHzdzKz2PslWURc07NlrEL5G32hpvvyV1/JW9h4ZJV4oR8YGlspogYXFJaZBPy6TJ7DonnGgq8PMUZezqEsbdxsauiLvcj20srS1vWZwxw5Ci26ZKd5312mZtx3z+38tsEwSkKEECBZq7LZWuvwuLkkyJ7aZW9tBJm2txPNAXEEI+wS5rltEfTwyEKMs9zBAtmhuooegrcNU2TjvIgwq7qRsmbYTc7yCDHMASw0G4TuJnGCMyt/AJGAsaQwYy+TlgQ5YLiqVwHIuSsrOMyVRTEYLqN9cizML+aOU5RhAAgANHER4ZQ8hbKhVMarHE2h6duQcb3BhmADDoEgbf41++SRI8sYYZgppGs6PJm6+EmYi+p4KTM6yWYQQCAV56RaWW28NlkAADM1NMhjDl5fH+fDcRxgsud8WDIEGKo0GETppsj7k93meH5uZE4ThZ4BDJ//fbSSsxPNckb4viMjT8AYDLH0Hnlg2w/mb5ahKfS0409I6NZFwIAGRA5Ds/Y6JvPRbPUyBAx8pzeYj5hjNIPm5tpjm3Zcyt/MKWMJJIGMlmm1l+PhRmZ6mqNoSRoFucWAikAQLXGwk9UUQEAGeP6mWmaypRdlRijhk4zJbCgkBFEh6JxZcYfz9zKr5mmamRVxVBSZMK+HNkInz2ppxIZf6KQAQCG45l/nWfCigIgACiT/IyZStJUklO5jqmkYv2dIJP5jwEGIEgahjnjUKe5lV81zJRhMMDSH+hERo7tY2RyY62RSqQCQzRTPj4dmRRSwmiOejafaCYhlJmQGihDeRL+/nBnK5s0KzdjSngkMZAhnQwDgCJKAYupqjmFV5ebOZbfNKOKalKaFJSM7X+0pz3ccSp3jh5TU0Knj6VG/Bk/BZXXKaT9kVhUtUTe3ISmD0bjBjJVLkM3Tw093t+dGhnKXQOUYGDk+H6SaaBAEFE43WAkmFR0i8tPGesOR4MpJcVp2fZXHdr3bvDUESNLk2gk48FTh8Ptp0imdP0MMhXrDLBD/UPEGkGfBiGHBgYppAYyM44Akv7+wJHdyeGBbDUgNTI0dHBHcjjzzn4EERXr/lgikEjO3Mlhzpd8+sLRkUSy2GFPiIpbzRD8RYk5fGxvKjTsqmpwlFRwtvdXhoxkIjHUE+1pTwUGSZZBn8LpOjZVYrYFRufwGT4MlLHecFQjROEMG2dkNP0m/P3E0B1l1Z66ZtFdkJ7QEl3ToqFYX2diqFcZHc54cQZZitcopH3h6GhiFhze51x+1TCODPqrvW4soGyWf2rosZ721PAgJ9sQx0OOZ6ZBTcNI5RooEURTvGoisrujL6LkbR/UiYwmUwf6Bq6orVY4TSB8xkdWggEtGor3dyJBxJwAed5MJoihGck4zT6FIZAmeMWfSLQGRmZlpjPn8jMAWv0jG+tqnKI4YouUJL2ZD6PUSCWM9Ngewozd/DhSnJbitEAyub930FK+XophnBgKLCwuwjKWTTGblwM1TTUSAgAACCEAU/FbD8sJA5K+SKwrGJ4VP/f5MPvohLxy6oxqmgqnR8UpTHum8GAaZ8TFlAnJrq6ecMpCnz4AgDHQF4kdGfQb0AxLcRNNNkBjU0pQGJESCU4Zjif3dPdrs+TbMk9Wv55QeGvrWYOSqJhMZJkFTB0dmxEhkQTa7u6+44PD5qzubjQraKa5t6fv6OBwCulBW4xMWgNyQiFL8mpETCR0/d2O7r7IrG3nM0+evgyA3d19RU77mspyKCUoZA5dQlkcQHKjcUZYTCSxenYkuLdnIGExJ89zhFPq7q5ejyxVewGUgUd1CmQ6b5tAGhdSMTGpmOaenv4jA/5Z7OnmcTMXAF49dUY3ydrqCiACAqnDkPgP80YIogqnRcVkEmgdI6HtHT3+WNxKnf54usPRbe1dm+pr6wq8pkzdul0yhIwuQBlhkOnITAhqklfCuvpeV9+7Hd1kVpu6eY2SMQjd1t6d1PX1NVXFdqpxus2QbIaY1R/yAwikKqeneE3hNY2ae3v69/UO+GOWsPLmgDF2yj8SV/XLairWVVeGpJgNS+nB4KRBbQYyU7yW4jUdGwPx+M7OnkP9g7Nu25jvICnFMPb2DATiyctrq5qKCnTRTPKqZAoi4QXCjasHDDIdmwqnadjQsUkgGYonDvQNHuoftGybP5G+SDSiqEOxxIa6qmI7U3iNJ7xk8rIpTuwOTEw0ZKicrmNDR0Qh+sn+wP6+wZ5QZC7sWnmIkdNM88xIcDAWbyj0XVFXVe3x6NhADEKGIACYIo5hE5H0MgGFjELKAAur6s7OnlP+kZiqzdzYOc/ENW1vT39nMLS8vHRddYVLFFVOi7NU2isEU4QZJogQSBlgFDIKmUFJZzC8p6uvOxxJ6sYchTPnJ0SSMhZTtaMD/hNDgfoCb1NRwZLSogK7DQAAEIDpZW4IAACqYbaPBE8Nj5wdCcY13WrBXFPHpHQolggkOvb3DtYXepeWFi8oLsDpIOXzH3kkkTw+FDgTGO2LRE06zaT1U2QO5YcA1hRX3bTm2kmPNAE4HoduQ3BLos9ucwiCQchQLG5QOhSLU1BYWFJYONNwNmvhp8DvZ7U+J0ao2GkXMA6nlJiqBVOphCYBe3VzXXXzZBfxuTLb0KbOXMoP4eaVmzav3DR3t7jEDLkAMiRcYu6Yffl3HM/zppAXIUk1ebzr5DROnP3G/5l3n+c5bv2itbN+5UtkhDL6zuHtrx94exrnzr78cSXxy61Pvrrvj7N+5UtkhDEQCI/o5nQMIXMy9NNNvS+Q2VnlEpbi0tDvouaS/Bc1l+S/qLkk/0XNJfkvariqovIFlY35LsYl8gMcHB1SMkVQXOJi4P8DhrTCIm9JdcgAAAAASUVORK5CYII=;movable=0;resizable=0;rotatable=0;deletable=0;editable=0;locked=1;connectable=0;" parent="c-pm6wDFBp0grKCKoOtM-145" vertex="1">
          <mxGeometry width="170" height="171" as="geometry" />
        </mxCell>
        <mxCell id="c-pm6wDFBp0grKCKoOtM-82" value="" style="ellipse;whiteSpace=wrap;html=1;aspect=fixed;fillColor=none;strokeColor=#d6b656;strokeWidth=3;" parent="c-pm6wDFBp0grKCKoOtM-145" vertex="1">
          <mxGeometry x="35" y="124" width="30" height="30" as="geometry" />
        </mxCell>
        <mxCell id="c-pm6wDFBp0grKCKoOtM-84" value="" style="ellipse;whiteSpace=wrap;html=1;aspect=fixed;fillColor=none;strokeColor=#d6b656;strokeWidth=3;" parent="c-pm6wDFBp0grKCKoOtM-145" vertex="1">
          <mxGeometry x="115" y="124" width="30" height="30" as="geometry" />
        </mxCell>
        <mxCell id="c-pm6wDFBp0grKCKoOtM-157" value="&lt;font style=&quot;font-size: 20px;&quot;&gt;rote LED&lt;/font&gt;" style="text;html=1;align=center;verticalAlign=middle;resizable=0;points=[];autosize=1;strokeColor=none;fillColor=none;fontFamily=Helvetica;fontSize=11;fontColor=default;labelBackgroundColor=default;" parent="1" vertex="1">
          <mxGeometry x="700" y="10" width="100" height="40" as="geometry" />
        </mxCell>
      </root>
    </mxGraphModel>
  </diagram>
</mxfile>
